{
	"asset":{
		"generator":"Khronos glTF Blender I/O v5.0.21",
		"version":"2.0"
	},
	"scene":0,
	"scenes":[
		{
			"name":"Scene",
			"nodes":[
				8
			]
		}
	],
	"nodes":[
		{
			"mesh":0,
			"name":"culo_low_Material_0"
		},
		{
			"children":[
				0
			],
			"name":"culo_low"
		},
		{
			"mesh":1,
			"name":"Hoja_low_Material_0"
		},
		{
			"children":[
				2
			],
			"name":"Hoja_low"
		},
		{
			"mesh":2,
			"name":"Mango_low_Material_0"
		},
		{
			"children":[
				4
			],
			"name":"Mango_low"
		},
		{
			"children":[
				1,
				3,
				5
			],
			"name":"RootNode"
		},
		{
			"children":[
				6
			],
			"name":"knife100.fbx"
		},
		{
			"children":[
				7
			],
			"name":"Sketchfab_model"
		}
	],
	"materials":[
		{
			"doubleSided":true,
			"name":"Material.001",
			"normalTexture":{
				"index":0
			},
			"pbrMetallicRoughness":{
				"baseColorTexture":{
					"index":1
				},
				"metallicRoughnessTexture":{
					"index":2
				}
			}
		}
	],
	"meshes":[
		{
			"name":"culo_low_Material_0",
			"primitives":[
				{
					"attributes":{
						"POSITION":0,
						"NORMAL":1,
						"TEXCOORD_0":2
					},
					"indices":3,
					"material":0
				}
			]
		},
		{
			"name":"Hoja_low_Material_0",
			"primitives":[
				{
					"attributes":{
						"POSITION":4,
						"NORMAL":5,
						"TEXCOORD_0":6
					},
					"indices":7,
					"material":0
				}
			]
		},
		{
			"name":"Mango_low_Material_0",
			"primitives":[
				{
					"attributes":{
						"POSITION":8,
						"NORMAL":9,
						"TEXCOORD_0":10
					},
					"indices":11,
					"material":0
				}
			]
		}
	],
	"textures":[
		{
			"sampler":0,
			"source":0
		},
		{
			"sampler":0,
			"source":1
		},
		{
			"sampler":0,
			"source":2
		}
	],
	"images":[
		{
			"mimeType":"image/png",
			"name":"Material_normal",
			"uri":"textures/Material_normal.png"
		},
		{
			"mimeType":"image/png",
			"name":"Material_baseColor",
			"uri":"textures/Material_baseColor.png"
		},
		{
			"mimeType":"image/png",
			"name":"Material_metallicRoughness",
			"uri":"textures/Material_metallicRoughness.png"
		}
	],
	"accessors":[
		{
			"bufferView":0,
			"componentType":5126,
			"count":194,
			"max":[
				-0.11444974690675735,
				0.138796865940094,
				0.1288823038339615
			],
			"min":[
				-0.12057650834321976,
				0.09489394724369049,
				0.11151521652936935
			],
			"type":"VEC3"
		},
		{
			"bufferView":1,
			"componentType":5126,
			"count":194,
			"type":"VEC3"
		},
		{
			"bufferView":2,
			"componentType":5126,
			"count":194,
			"type":"VEC2"
		},
		{
			"bufferView":3,
			"componentType":5123,
			"count":720,
			"type":"SCALAR"
		},
		{
			"bufferView":4,
			"componentType":5126,
			"count":656,
			"max":[
				0.16261404752731323,
				0.14359623193740845,
				0.127039834856987
			],
			"min":[
				-0.01607452891767025,
				0.10421360284090042,
				0.12133907526731491
			],
			"type":"VEC3"
		},
		{
			"bufferView":5,
			"componentType":5126,
			"count":656,
			"type":"VEC3"
		},
		{
			"bufferView":6,
			"componentType":5126,
			"count":656,
			"type":"VEC2"
		},
		{
			"bufferView":7,
			"componentType":5123,
			"count":3138,
			"type":"SCALAR"
		},
		{
			"bufferView":8,
			"componentType":5126,
			"count":1475,
			"max":[
				0.027134155854582787,
				0.16961893439292908,
				0.13198700547218323
			],
			"min":[
				-0.11530087143182755,
				0.07789605855941772,
				0.11153069138526917
			],
			"type":"VEC3"
		},
		{
			"bufferView":9,
			"componentType":5126,
			"count":1475,
			"type":"VEC3"
		},
		{
			"bufferView":10,
			"componentType":5126,
			"count":1475,
			"type":"VEC2"
		},
		{
			"bufferView":11,
			"componentType":5123,
			"count":6816,
			"type":"SCALAR"
		}
	],
	"bufferViews":[
		{
			"buffer":0,
			"byteLength":2328,
			"byteOffset":0,
			"target":34962
		},
		{
			"buffer":0,
			"byteLength":2328,
			"byteOffset":2328,
			"target":34962
		},
		{
			"buffer":0,
			"byteLength":1552,
			"byteOffset":4656,
			"target":34962
		},
		{
			"buffer":0,
			"byteLength":1440,
			"byteOffset":6208,
			"target":34963
		},
		{
			"buffer":0,
			"byteLength":7872,
			"byteOffset":7648,
			"target":34962
		},
		{
			"buffer":0,
			"byteLength":7872,
			"byteOffset":15520,
			"target":34962
		},
		{
			"buffer":0,
			"byteLength":5248,
			"byteOffset":23392,
			"target":34962
		},
		{
			"buffer":0,
			"byteLength":6276,
			"byteOffset":28640,
			"target":34963
		},
		{
			"buffer":0,
			"byteLength":17700,
			"byteOffset":34916,
			"target":34962
		},
		{
			"buffer":0,
			"byteLength":17700,
			"byteOffset":52616,
			"target":34962
		},
		{
			"buffer":0,
			"byteLength":11800,
			"byteOffset":70316,
			"target":34962
		},
		{
			"buffer":0,
			"byteLength":13632,
			"byteOffset":82116,
			"target":34963
		}
	],
	"samplers":[
		{
			"magFilter":9729,
			"minFilter":9987
		}
	],
	"buffers":[
		{
			"byteLength":95748,
			"uri":"scene.bin"
		}
	]
}
