{
	"asset":{
		"generator":"Khronos glTF Blender I/O v5.0.21",
		"version":"2.0"
	},
	"extensionsUsed":[
		"KHR_materials_specular"
	],
	"scene":0,
	"scenes":[
		{
			"name":"Scene",
			"nodes":[
				104
			]
		}
	],
	"nodes":[
		{
			"mesh":0,
			"name":"ferule1_shelEtc_0"
		},
		{
			"children":[
				0
			],
			"name":"ferule1",
			"translation":[
				-8.853302955627441,
				7.4166412353515625,
				0.8308719396591187
			]
		},
		{
			"mesh":1,
			"name":"ferule2_shelEtc_0"
		},
		{
			"children":[
				2
			],
			"name":"ferule2",
			"translation":[
				-8.853302955627441,
				31.758926391601562,
				-2.2223398685455322
			]
		},
		{
			"mesh":2,
			"name":"ferule3_shelEtc_0"
		},
		{
			"children":[
				4
			],
			"name":"ferule3",
			"translation":[
				-8.853302955627441,
				40.61067199707031,
				-6.329975605010986
			]
		},
		{
			"mesh":3,
			"name":"ferule4_shelEtc_0"
		},
		{
			"children":[
				6
			],
			"name":"ferule4",
			"translation":[
				-8.853302955627441,
				82.87774658203125,
				2.0260562896728516
			]
		},
		{
			"mesh":4,
			"name":"ferule5_shelEtc_0"
		},
		{
			"children":[
				8
			],
			"name":"ferule5",
			"translation":[
				8.997117042541504,
				7.7770538330078125,
				0.7113054394721985
			]
		},
		{
			"mesh":5,
			"name":"ferule6_shelEtc_0"
		},
		{
			"children":[
				10
			],
			"name":"ferule6",
			"translation":[
				8.997117042541504,
				31.758926391601562,
				-2.3121564388275146
			]
		},
		{
			"mesh":6,
			"name":"ferule7_shelEtc_0"
		},
		{
			"children":[
				12
			],
			"name":"ferule7",
			"translation":[
				8.997117042541504,
				40.83197021484375,
				-6.4056267738342285
			]
		},
		{
			"mesh":7,
			"name":"ferule8_shelEtc_0"
		},
		{
			"children":[
				14
			],
			"name":"ferule8",
			"translation":[
				8.997117042541504,
				82.87774658203125,
				2.0260562896728516
			]
		},
		{
			"mesh":8,
			"name":"pin1_shelEtc_0"
		},
		{
			"children":[
				16
			],
			"name":"pin1"
		},
		{
			"mesh":9,
			"name":"pin2_shelEtc_0"
		},
		{
			"children":[
				18
			],
			"name":"pin2"
		},
		{
			"mesh":10,
			"name":"pin3_shelEtc_0"
		},
		{
			"children":[
				20
			],
			"name":"pin3"
		},
		{
			"mesh":11,
			"name":"pin4_shelEtc_0"
		},
		{
			"children":[
				22
			],
			"name":"pin4"
		},
		{
			"mesh":12,
			"name":"shell1_shelEtc_0"
		},
		{
			"children":[
				24
			],
			"name":"shell1",
			"translation":[
				-9.70949935913086,
				7.75299072265625,
				0.7687864303588867
			]
		},
		{
			"mesh":13,
			"name":"shell2_shelEtc_0"
		},
		{
			"children":[
				26
			],
			"name":"shell2",
			"translation":[
				10.011324882507324,
				7.75299072265625,
				0.7687864303588867
			]
		},
		{
			"mesh":14,
			"name":"toothpick_shelEtc_0"
		},
		{
			"children":[
				28
			],
			"name":"toothpick",
			"translation":[
				9.775164604187012,
				88.25880432128906,
				-2.8685691356658936
			]
		},
		{
			"mesh":15,
			"name":"tweezer_shelEtc_0"
		},
		{
			"children":[
				30
			],
			"name":"tweezer",
			"translation":[
				-8.846933364868164,
				88.28919982910156,
				-2.9293718338012695
			]
		},
		{
			"children":[
				1,
				3,
				5,
				7,
				9,
				11,
				13,
				15,
				17,
				19,
				21,
				23,
				25,
				27,
				29,
				31
			],
			"name":"otherParts"
		},
		{
			"mesh":16,
			"name":"knifeS_parts_0"
		},
		{
			"children":[
				33
			],
			"name":"knifeS",
			"translation":[
				6.8082475662231445,
				0,
				0
			]
		},
		{
			"mesh":17,
			"name":"glass_glass_0"
		},
		{
			"children":[
				35
			],
			"name":"glass"
		},
		{
			"mesh":18,
			"name":"magnifier_parts_0"
		},
		{
			"children":[
				36,
				37
			],
			"name":"magnifier",
			"translation":[
				-3.091601848602295,
				0,
				0
			]
		},
		{
			"mesh":19,
			"name":"opener_parts_0"
		},
		{
			"children":[
				39
			],
			"name":"opener",
			"translation":[
				-6.072519302368164,
				0,
				0
			]
		},
		{
			"mesh":20,
			"name":"saw_parts_0"
		},
		{
			"children":[
				41
			],
			"name":"saw",
			"translation":[
				3.4041237831115723,
				0,
				0
			]
		},
		{
			"name":"Object_74"
		},
		{
			"name":"Joint_2_02",
			"rotation":[
				0.8228757381439209,
				-1.0865184663089167e-07,
				7.696172588111949e-08,
				0.568221390247345
			],
			"scale":[
				1,
				1,
				1.0000001192092896
			],
			"translation":[
				-1.7955899238586426e-06,
				0.18864703178405762,
				-0.44950130581855774
			]
		},
		{
			"children":[
				44
			],
			"name":"Joint_1_01",
			"rotation":[
				-2.5374106371600647e-08,
				0.8808878660202026,
				0.47332504391670227,
				7.242192623380106e-08
			],
			"scale":[
				0.9999999403953552,
				1,
				1
			],
			"translation":[
				1.7881393432617188e-06,
				1.3113021850585938e-06,
				-0.07692892849445343
			]
		},
		{
			"children":[
				45
			],
			"name":"Joint_00",
			"rotation":[
				-2.2602192473186733e-07,
				-0.8900270462036133,
				0.45590776205062866,
				6.487668713361927e-08
			],
			"scale":[
				1.0000001192092896,
				1.0000005960464478,
				1
			],
			"translation":[
				-3.6656856536865234e-06,
				0.42474663257598877,
				-0.027780480682849884
			]
		},
		{
			"children":[
				46
			],
			"name":"_rootJoint",
			"rotation":[
				-0.35984328389167786,
				-0.1296570748090744,
				-0.23261180520057678,
				0.8941999673843384
			],
			"scale":[
				0.9999999403953552,
				1,
				1
			],
			"translation":[
				0.25550681352615356,
				0.321563720703125,
				-0.287114679813385
			]
		},
		{
			"mesh":21,
			"name":"Object_75",
			"skin":0
		},
		{
			"mesh":22,
			"name":"scissorA_parts_0"
		},
		{
			"name":"scissorArc"
		},
		{
			"mesh":23,
			"name":"scissorB_parts_0"
		},
		{
			"children":[
				51
			],
			"name":"scissorB",
			"translation":[
				0,
				-43.76106262207031,
				4.539167404174805
			]
		},
		{
			"children":[
				43,
				48,
				49,
				50,
				52,
				47
			],
			"name":"Object_72"
		},
		{
			"children":[
				53
			],
			"name":"scissorA",
			"translation":[
				0.44189420342445374,
				0,
				0
			]
		},
		{
			"children":[
				34,
				38,
				40,
				42,
				54
			],
			"name":"partsA"
		},
		{
			"mesh":24,
			"name":"halfMoonKnife_parts_0"
		},
		{
			"children":[
				56
			],
			"name":"halfMoonKnife",
			"translation":[
				-6.070501804351807,
				0,
				0
			]
		},
		{
			"mesh":25,
			"name":"knifeL_parts_0"
		},
		{
			"children":[
				58
			],
			"name":"knifeL",
			"translation":[
				6.2376203536987305,
				0,
				0
			]
		},
		{
			"mesh":26,
			"name":"screwdriverL_parts_0"
		},
		{
			"children":[
				60
			],
			"name":"screwdriverL",
			"translation":[
				-2.9516916275024414,
				0,
				0
			]
		},
		{
			"children":[
				57,
				59,
				61
			],
			"name":"partsB"
		},
		{
			"mesh":27,
			"name":"auger_parts_0"
		},
		{
			"children":[
				63
			],
			"name":"auger",
			"translation":[
				6.383599758148193,
				0,
				0
			]
		},
		{
			"mesh":28,
			"name":"hooker_parts_0"
		},
		{
			"children":[
				65
			],
			"name":"hooker",
			"translation":[
				0.4281767010688782,
				0,
				0
			]
		},
		{
			"mesh":29,
			"name":"LeatherNeedle_parts_0"
		},
		{
			"children":[
				67
			],
			"name":"LeatherNeedle",
			"translation":[
				-6.11877965927124,
				0,
				0
			]
		},
		{
			"mesh":30,
			"name":"screwdriverS_parts_0"
		},
		{
			"children":[
				69
			],
			"name":"screwdriverS",
			"translation":[
				3.416203737258911,
				0,
				0
			]
		},
		{
			"children":[
				64,
				66,
				68,
				70
			],
			"name":"partsC"
		},
		{
			"mesh":31,
			"name":"seperator1_seperators_0"
		},
		{
			"children":[
				72
			],
			"name":"seperator1",
			"translation":[
				-7.452204704284668,
				7.752998352050781,
				0.7687864303588867
			]
		},
		{
			"mesh":32,
			"name":"seperator2_seperators_0"
		},
		{
			"children":[
				74
			],
			"name":"seperator2",
			"translation":[
				-4.581642150878906,
				7.752998352050781,
				0.7687864303588867
			]
		},
		{
			"mesh":33,
			"name":"seperator3_seperators_0"
		},
		{
			"children":[
				76
			],
			"name":"seperator3",
			"translation":[
				-1.133331060409546,
				7.752998352050781,
				0.7687864303588867
			]
		},
		{
			"mesh":34,
			"name":"seperator4_seperators_0"
		},
		{
			"children":[
				78
			],
			"name":"seperator4",
			"translation":[
				2.252552032470703,
				7.752998352050781,
				0.7687864303588867
			]
		},
		{
			"mesh":35,
			"name":"seperator5_seperators_0"
		},
		{
			"children":[
				80
			],
			"name":"seperator5",
			"translation":[
				4.788322448730469,
				7.752998352050781,
				0.7687864303588867
			]
		},
		{
			"mesh":36,
			"name":"seperator5b_seperators_0"
		},
		{
			"children":[
				82
			],
			"name":"seperator5b",
			"translation":[
				5.538064479827881,
				82.55226135253906,
				0.7687864303588867
			]
		},
		{
			"mesh":37,
			"name":"seperator6_seperators_0"
		},
		{
			"children":[
				84
			],
			"name":"seperator6",
			"translation":[
				7.908699989318848,
				7.752998352050781,
				0.7687864303588867
			]
		},
		{
			"children":[
				73,
				75,
				77,
				79,
				81,
				83,
				85
			],
			"name":"seperators"
		},
		{
			"mesh":38,
			"name":"ring_shelEtc_0",
			"translation":[
				9.685754776000977e-06,
				2.86102294921875e-06,
				0
			]
		},
		{
			"children":[
				87
			],
			"name":"ring",
			"rotation":[
				0.6661316156387329,
				0.5340324640274048,
				-0.45045167207717896,
				0.26109641790390015
			],
			"translation":[
				-4.871462345123291,
				79.55744934082031,
				-4.899696350097656
			]
		},
		{
			"mesh":39,
			"name":"spring1_springs_0"
		},
		{
			"children":[
				88,
				89
			],
			"name":"spring1",
			"translation":[
				-6.309542179107666,
				0,
				-5.277395248413086
			]
		},
		{
			"mesh":40,
			"name":"spring2_springs_0"
		},
		{
			"children":[
				91
			],
			"name":"spring2",
			"translation":[
				-3.1198885440826416,
				0,
				-5.8935136795043945
			]
		},
		{
			"mesh":41,
			"name":"spring3_springs_0"
		},
		{
			"children":[
				93
			],
			"name":"spring3"
		},
		{
			"mesh":42,
			"name":"spring4_springs_0"
		},
		{
			"children":[
				95
			],
			"name":"spring4",
			"translation":[
				3.2648351192474365,
				0,
				0
			]
		},
		{
			"mesh":43,
			"name":"spring5_springs_0"
		},
		{
			"children":[
				97
			],
			"name":"spring5",
			"translation":[
				6.160696983337402,
				0,
				-4.474970817565918
			]
		},
		{
			"children":[
				90,
				92,
				94,
				96,
				98
			],
			"name":"springs"
		},
		{
			"children":[
				32,
				55,
				62,
				71,
				86,
				99
			],
			"name":"officier_suisse",
			"translation":[
				0.07126698642969131,
				112.69999694824219,
				0
			]
		},
		{
			"children":[
				100
			],
			"name":"RootNode"
		},
		{
			"children":[
				101
			],
			"name":"Object_2"
		},
		{
			"children":[
				102
			],
			"name":"2efdb703e8414cbb8aea02be673efce8.fbx"
		},
		{
			"children":[
				103
			],
			"name":"Sketchfab_model"
		}
	],
	"materials":[
		{
			"extensions":{
				"KHR_materials_specular":{
					"specularTexture":{
						"index":0
					}
				}
			},
			"name":"shelEtc",
			"normalTexture":{
				"index":1,
				"scale":0.4000000059604645
			},
			"pbrMetallicRoughness":{
				"baseColorTexture":{
					"index":2
				},
				"metallicRoughnessTexture":{
					"index":3
				}
			}
		},
		{
			"extensions":{
				"KHR_materials_specular":{
					"specularTexture":{
						"index":4
					}
				}
			},
			"name":"parts",
			"normalTexture":{
				"index":5,
				"scale":0.4000000059604645
			},
			"pbrMetallicRoughness":{
				"baseColorTexture":{
					"index":6
				},
				"metallicRoughnessTexture":{
					"index":7
				},
				"roughnessFactor":0.10000000149011612
			}
		},
		{
			"alphaMode":"BLEND",
			"extensions":{
				"KHR_materials_specular":{
					"specularFactor":0
				}
			},
			"name":"glass",
			"pbrMetallicRoughness":{
				"baseColorFactor":[
					1,
					1,
					1,
					0.3330000042915344
				],
				"roughnessFactor":0
			}
		},
		{
			"extensions":{
				"KHR_materials_specular":{
					"specularTexture":{
						"index":8
					}
				}
			},
			"name":"seperators",
			"normalTexture":{
				"index":9
			},
			"pbrMetallicRoughness":{
				"baseColorTexture":{
					"index":10
				},
				"metallicRoughnessTexture":{
					"index":11
				}
			}
		},
		{
			"extensions":{
				"KHR_materials_specular":{
					"specularTexture":{
						"index":12
					}
				}
			},
			"name":"springs",
			"normalTexture":{
				"index":13,
				"scale":0.4000000059604645
			},
			"pbrMetallicRoughness":{
				"baseColorTexture":{
					"index":14
				},
				"roughnessFactor":0.10000000149011612
			}
		}
	],
	"meshes":[
		{
			"name":"ferule1_shelEtc_0",
			"primitives":[
				{
					"attributes":{
						"POSITION":0,
						"NORMAL":1,
						"TEXCOORD_0":2,
						"TEXCOORD_1":3,
						"TEXCOORD_2":4
					},
					"indices":5,
					"material":0
				}
			]
		},
		{
			"name":"ferule2_shelEtc_0",
			"primitives":[
				{
					"attributes":{
						"POSITION":6,
						"NORMAL":7,
						"TEXCOORD_0":8,
						"TEXCOORD_1":9,
						"TEXCOORD_2":10
					},
					"indices":11,
					"material":0
				}
			]
		},
		{
			"name":"ferule3_shelEtc_0",
			"primitives":[
				{
					"attributes":{
						"POSITION":12,
						"NORMAL":13,
						"TEXCOORD_0":14,
						"TEXCOORD_1":15,
						"TEXCOORD_2":16
					},
					"indices":17,
					"material":0
				}
			]
		},
		{
			"name":"ferule4_shelEtc_0",
			"primitives":[
				{
					"attributes":{
						"POSITION":18,
						"NORMAL":19,
						"TEXCOORD_0":20,
						"TEXCOORD_1":21,
						"TEXCOORD_2":22
					},
					"indices":23,
					"material":0
				}
			]
		},
		{
			"name":"ferule5_shelEtc_0",
			"primitives":[
				{
					"attributes":{
						"POSITION":24,
						"NORMAL":25,
						"TEXCOORD_0":26,
						"TEXCOORD_1":27,
						"TEXCOORD_2":28
					},
					"indices":29,
					"material":0
				}
			]
		},
		{
			"name":"ferule6_shelEtc_0",
			"primitives":[
				{
					"attributes":{
						"POSITION":30,
						"NORMAL":31,
						"TEXCOORD_0":32,
						"TEXCOORD_1":33,
						"TEXCOORD_2":34
					},
					"indices":35,
					"material":0
				}
			]
		},
		{
			"name":"ferule7_shelEtc_0",
			"primitives":[
				{
					"attributes":{
						"POSITION":36,
						"NORMAL":37,
						"TEXCOORD_0":38,
						"TEXCOORD_1":39,
						"TEXCOORD_2":40
					},
					"indices":41,
					"material":0
				}
			]
		},
		{
			"name":"ferule8_shelEtc_0",
			"primitives":[
				{
					"attributes":{
						"POSITION":42,
						"NORMAL":43,
						"TEXCOORD_0":44,
						"TEXCOORD_1":45,
						"TEXCOORD_2":46
					},
					"indices":47,
					"material":0
				}
			]
		},
		{
			"name":"pin1_shelEtc_0",
			"primitives":[
				{
					"attributes":{
						"POSITION":48,
						"NORMAL":49,
						"TEXCOORD_0":50,
						"TEXCOORD_1":51,
						"TEXCOORD_2":52
					},
					"indices":53,
					"material":0
				}
			]
		},
		{
			"name":"pin2_shelEtc_0",
			"primitives":[
				{
					"attributes":{
						"POSITION":54,
						"NORMAL":55,
						"TEXCOORD_0":56,
						"TEXCOORD_1":57,
						"TEXCOORD_2":58
					},
					"indices":59,
					"material":0
				}
			]
		},
		{
			"name":"pin3_shelEtc_0",
			"primitives":[
				{
					"attributes":{
						"POSITION":60,
						"NORMAL":61,
						"TEXCOORD_0":62,
						"TEXCOORD_1":63,
						"TEXCOORD_2":64
					},
					"indices":65,
					"material":0
				}
			]
		},
		{
			"name":"pin4_shelEtc_0",
			"primitives":[
				{
					"attributes":{
						"POSITION":66,
						"NORMAL":67,
						"TEXCOORD_0":68,
						"TEXCOORD_1":69,
						"TEXCOORD_2":70
					},
					"indices":71,
					"material":0
				}
			]
		},
		{
			"name":"shell1_shelEtc_0",
			"primitives":[
				{
					"attributes":{
						"POSITION":72,
						"NORMAL":73,
						"TEXCOORD_0":74,
						"TEXCOORD_1":75,
						"TEXCOORD_2":76
					},
					"indices":77,
					"material":0
				}
			]
		},
		{
			"name":"shell2_shelEtc_0",
			"primitives":[
				{
					"attributes":{
						"POSITION":78,
						"NORMAL":79,
						"TEXCOORD_0":80,
						"TEXCOORD_1":81,
						"TEXCOORD_2":82
					},
					"indices":83,
					"material":0
				}
			]
		},
		{
			"name":"toothpick_shelEtc_0",
			"primitives":[
				{
					"attributes":{
						"POSITION":84,
						"NORMAL":85,
						"TEXCOORD_0":86,
						"TEXCOORD_1":87,
						"TEXCOORD_2":88
					},
					"indices":89,
					"material":0
				}
			]
		},
		{
			"name":"tweezer_shelEtc_0",
			"primitives":[
				{
					"attributes":{
						"POSITION":90,
						"NORMAL":91,
						"TEXCOORD_0":92,
						"TEXCOORD_1":93,
						"TEXCOORD_2":94
					},
					"indices":95,
					"material":0
				}
			]
		},
		{
			"name":"knifeS_parts_0",
			"primitives":[
				{
					"attributes":{
						"POSITION":96,
						"NORMAL":97,
						"TEXCOORD_0":98,
						"TEXCOORD_1":99
					},
					"indices":100,
					"material":1
				}
			]
		},
		{
			"name":"glass_glass_0",
			"primitives":[
				{
					"attributes":{
						"POSITION":101,
						"NORMAL":102,
						"TEXCOORD_0":103
					},
					"indices":104,
					"material":2
				}
			]
		},
		{
			"name":"magnifier_parts_0",
			"primitives":[
				{
					"attributes":{
						"POSITION":105,
						"NORMAL":106,
						"TEXCOORD_0":107,
						"TEXCOORD_1":108
					},
					"indices":109,
					"material":1
				}
			]
		},
		{
			"name":"opener_parts_0",
			"primitives":[
				{
					"attributes":{
						"POSITION":110,
						"NORMAL":111,
						"TEXCOORD_0":112,
						"TEXCOORD_1":113
					},
					"indices":114,
					"material":1
				}
			]
		},
		{
			"name":"saw_parts_0",
			"primitives":[
				{
					"attributes":{
						"POSITION":115,
						"NORMAL":116,
						"TEXCOORD_0":117,
						"TEXCOORD_1":118
					},
					"indices":119,
					"material":1
				}
			]
		},
		{
			"name":"scissorArc_parts_0",
			"primitives":[
				{
					"attributes":{
						"POSITION":120,
						"NORMAL":121,
						"TEXCOORD_0":122,
						"TEXCOORD_1":123,
						"JOINTS_0":124,
						"WEIGHTS_0":125
					},
					"indices":126,
					"material":1
				}
			]
		},
		{
			"name":"scissorA_parts_0",
			"primitives":[
				{
					"attributes":{
						"POSITION":128,
						"NORMAL":129,
						"TEXCOORD_0":130,
						"TEXCOORD_1":131
					},
					"indices":132,
					"material":1
				}
			]
		},
		{
			"name":"scissorB_parts_0",
			"primitives":[
				{
					"attributes":{
						"POSITION":133,
						"NORMAL":134,
						"TEXCOORD_0":135,
						"TEXCOORD_1":136
					},
					"indices":137,
					"material":1
				}
			]
		},
		{
			"name":"halfMoonKnife_parts_0",
			"primitives":[
				{
					"attributes":{
						"POSITION":138,
						"NORMAL":139,
						"TEXCOORD_0":140,
						"TEXCOORD_1":141
					},
					"indices":142,
					"material":1
				}
			]
		},
		{
			"name":"knifeL_parts_0",
			"primitives":[
				{
					"attributes":{
						"POSITION":143,
						"NORMAL":144,
						"TEXCOORD_0":145,
						"TEXCOORD_1":146
					},
					"indices":147,
					"material":1
				}
			]
		},
		{
			"name":"screwdriverL_parts_0",
			"primitives":[
				{
					"attributes":{
						"POSITION":148,
						"NORMAL":149,
						"TEXCOORD_0":150,
						"TEXCOORD_1":151
					},
					"indices":152,
					"material":1
				}
			]
		},
		{
			"name":"auger_parts_0",
			"primitives":[
				{
					"attributes":{
						"POSITION":153,
						"NORMAL":154,
						"TEXCOORD_0":155,
						"TEXCOORD_1":156
					},
					"indices":157,
					"material":1
				}
			]
		},
		{
			"name":"hooker_parts_0",
			"primitives":[
				{
					"attributes":{
						"POSITION":158,
						"NORMAL":159,
						"TEXCOORD_0":160,
						"TEXCOORD_1":161
					},
					"indices":162,
					"material":1
				}
			]
		},
		{
			"name":"LeatherNeedle_parts_0",
			"primitives":[
				{
					"attributes":{
						"POSITION":163,
						"NORMAL":164,
						"TEXCOORD_0":165,
						"TEXCOORD_1":166
					},
					"indices":167,
					"material":1
				}
			]
		},
		{
			"name":"screwdriverS_parts_0",
			"primitives":[
				{
					"attributes":{
						"POSITION":168,
						"NORMAL":169,
						"TEXCOORD_0":170,
						"TEXCOORD_1":171
					},
					"indices":172,
					"material":1
				}
			]
		},
		{
			"name":"seperator1_seperators_0",
			"primitives":[
				{
					"attributes":{
						"POSITION":173,
						"NORMAL":174,
						"TEXCOORD_0":175,
						"TEXCOORD_1":176
					},
					"indices":177,
					"material":3
				}
			]
		},
		{
			"name":"seperator2_seperators_0",
			"primitives":[
				{
					"attributes":{
						"POSITION":178,
						"NORMAL":179,
						"TEXCOORD_0":180,
						"TEXCOORD_1":181
					},
					"indices":182,
					"material":3
				}
			]
		},
		{
			"name":"seperator3_seperators_0",
			"primitives":[
				{
					"attributes":{
						"POSITION":183,
						"NORMAL":184,
						"TEXCOORD_0":185,
						"TEXCOORD_1":186
					},
					"indices":187,
					"material":3
				}
			]
		},
		{
			"name":"seperator4_seperators_0",
			"primitives":[
				{
					"attributes":{
						"POSITION":188,
						"NORMAL":189,
						"TEXCOORD_0":190,
						"TEXCOORD_1":191
					},
					"indices":192,
					"material":3
				}
			]
		},
		{
			"name":"seperator5_seperators_0",
			"primitives":[
				{
					"attributes":{
						"POSITION":193,
						"NORMAL":194,
						"TEXCOORD_0":195,
						"TEXCOORD_1":196
					},
					"indices":197,
					"material":3
				}
			]
		},
		{
			"name":"seperator5b_seperators_0",
			"primitives":[
				{
					"attributes":{
						"POSITION":198,
						"NORMAL":199,
						"TEXCOORD_0":200,
						"TEXCOORD_1":201
					},
					"indices":202,
					"material":3
				}
			]
		},
		{
			"name":"seperator6_seperators_0",
			"primitives":[
				{
					"attributes":{
						"POSITION":203,
						"NORMAL":204,
						"TEXCOORD_0":205,
						"TEXCOORD_1":206
					},
					"indices":207,
					"material":3
				}
			]
		},
		{
			"name":"ring_shelEtc_0",
			"primitives":[
				{
					"attributes":{
						"POSITION":208,
						"NORMAL":209,
						"TEXCOORD_0":210,
						"TEXCOORD_1":211,
						"TEXCOORD_2":212
					},
					"indices":213,
					"material":0
				}
			]
		},
		{
			"name":"spring1_springs_0",
			"primitives":[
				{
					"attributes":{
						"POSITION":214,
						"NORMAL":215,
						"TEXCOORD_0":216,
						"TEXCOORD_1":217
					},
					"indices":218,
					"material":4
				}
			]
		},
		{
			"name":"spring2_springs_0",
			"primitives":[
				{
					"attributes":{
						"POSITION":219,
						"NORMAL":220,
						"TEXCOORD_0":221,
						"TEXCOORD_1":222
					},
					"indices":223,
					"material":4
				}
			]
		},
		{
			"name":"spring3_springs_0",
			"primitives":[
				{
					"attributes":{
						"POSITION":224,
						"NORMAL":225,
						"TEXCOORD_0":226,
						"TEXCOORD_1":227
					},
					"indices":228,
					"material":4
				}
			]
		},
		{
			"name":"spring4_springs_0",
			"primitives":[
				{
					"attributes":{
						"POSITION":229,
						"NORMAL":230,
						"TEXCOORD_0":231,
						"TEXCOORD_1":232
					},
					"indices":233,
					"material":4
				}
			]
		},
		{
			"name":"spring5_springs_0",
			"primitives":[
				{
					"attributes":{
						"POSITION":234,
						"NORMAL":235,
						"TEXCOORD_0":236,
						"TEXCOORD_1":237
					},
					"indices":238,
					"material":4
				}
			]
		}
	],
	"textures":[
		{
			"sampler":0,
			"source":0
		},
		{
			"sampler":0,
			"source":1
		},
		{
			"sampler":0,
			"source":2
		},
		{
			"sampler":0,
			"source":3
		},
		{
			"sampler":0,
			"source":4
		},
		{
			"sampler":0,
			"source":5
		},
		{
			"sampler":0,
			"source":6
		},
		{
			"sampler":0,
			"source":7
		},
		{
			"sampler":0,
			"source":8
		},
		{
			"sampler":0,
			"source":9
		},
		{
			"sampler":0,
			"source":10
		},
		{
			"sampler":0,
			"source":11
		},
		{
			"sampler":0,
			"source":12
		},
		{
			"sampler":0,
			"source":13
		},
		{
			"sampler":0,
			"source":14
		}
	],
	"images":[
		{
			"mimeType":"image/png",
			"name":"shelEtc_specularf0",
			"uri":"textures/shelEtc_specularf0.png"
		},
		{
			"mimeType":"image/png",
			"name":"shelEtc_normal",
			"uri":"textures/shelEtc_normal.png"
		},
		{
			"mimeType":"image/jpeg",
			"name":"shelEtc_baseColor",
			"uri":"textures/shelEtc_baseColor.jpg"
		},
		{
			"mimeType":"image/png",
			"name":"shelEtc_metallicRoughness",
			"uri":"textures/shelEtc_metallicRoughness.png"
		},
		{
			"mimeType":"image/png",
			"name":"parts_specularf0",
			"uri":"textures/parts_specularf0.png"
		},
		{
			"mimeType":"image/png",
			"name":"parts_normal",
			"uri":"textures/parts_normal.png"
		},
		{
			"mimeType":"image/jpeg",
			"name":"parts_baseColor",
			"uri":"textures/parts_baseColor.jpg"
		},
		{
			"mimeType":"image/png",
			"name":"parts_metallicRoughness",
			"uri":"textures/parts_metallicRoughness.png"
		},
		{
			"mimeType":"image/png",
			"name":"seperators_specularf0",
			"uri":"textures/seperators_specularf0.png"
		},
		{
			"mimeType":"image/png",
			"name":"seperators_normal",
			"uri":"textures/seperators_normal.png"
		},
		{
			"mimeType":"image/jpeg",
			"name":"seperators_baseColor",
			"uri":"textures/seperators_baseColor.jpg"
		},
		{
			"mimeType":"image/png",
			"name":"seperators_metallicRoughness",
			"uri":"textures/seperators_metallicRoughness.png"
		},
		{
			"mimeType":"image/png",
			"name":"springs_specularf0",
			"uri":"textures/springs_specularf0.png"
		},
		{
			"mimeType":"image/png",
			"name":"springs_normal",
			"uri":"textures/springs_normal.png"
		},
		{
			"mimeType":"image/jpeg",
			"name":"springs_baseColor",
			"uri":"textures/springs_baseColor.jpg"
		}
	],
	"skins":[
		{
			"inverseBindMatrices":127,
			"joints":[
				47,
				46,
				45,
				44
			],
			"name":"Object_72"
		}
	],
	"accessors":[
		{
			"bufferView":0,
			"componentType":5126,
			"count":176,
			"max":[
				0.10751613974571228,
				0.1768694967031479,
				-0.14937299489974976
			],
			"min":[
				0.09618622064590454,
				0.16316573321819305,
				-0.1631525456905365
			],
			"type":"VEC3"
		},
		{
			"bufferView":1,
			"componentType":5126,
			"count":176,
			"type":"VEC3"
		},
		{
			"bufferView":2,
			"componentType":5126,
			"count":176,
			"type":"VEC2"
		},
		{
			"bufferView":3,
			"componentType":5126,
			"count":176,
			"type":"VEC2"
		},
		{
			"bufferView":4,
			"componentType":5126,
			"count":176,
			"type":"VEC2"
		},
		{
			"bufferView":5,
			"componentType":5123,
			"count":540,
			"type":"SCALAR"
		},
		{
			"bufferView":6,
			"componentType":5126,
			"count":185,
			"max":[
				0.1494758278131485,
				0.22130542993545532,
				-0.20364263653755188
			],
			"min":[
				0.13814586400985718,
				0.20760169625282288,
				-0.21742215752601624
			],
			"type":"VEC3"
		},
		{
			"bufferView":7,
			"componentType":5126,
			"count":185,
			"type":"VEC3"
		},
		{
			"bufferView":8,
			"componentType":5126,
			"count":185,
			"type":"VEC2"
		},
		{
			"bufferView":9,
			"componentType":5126,
			"count":185,
			"type":"VEC2"
		},
		{
			"bufferView":10,
			"componentType":5126,
			"count":185,
			"type":"VEC2"
		},
		{
			"bufferView":11,
			"componentType":5123,
			"count":540,
			"type":"SCALAR"
		},
		{
			"bufferView":12,
			"componentType":5126,
			"count":184,
			"max":[
				0.16569669544696808,
				0.23027648031711578,
				-0.23125508427619934
			],
			"min":[
				0.15436673164367676,
				0.21657270193099976,
				-0.2450346052646637
			],
			"type":"VEC3"
		},
		{
			"bufferView":13,
			"componentType":5126,
			"count":184,
			"type":"VEC3"
		},
		{
			"bufferView":14,
			"componentType":5126,
			"count":184,
			"type":"VEC2"
		},
		{
			"bufferView":15,
			"componentType":5126,
			"count":184,
			"type":"VEC2"
		},
		{
			"bufferView":16,
			"componentType":5126,
			"count":184,
			"type":"VEC2"
		},
		{
			"bufferView":17,
			"componentType":5123,
			"count":540,
			"type":"SCALAR"
		},
		{
			"bufferView":18,
			"componentType":5126,
			"count":195,
			"max":[
				0.23478662967681885,
				0.3382847309112549,
				-0.2924569547176361
			],
			"min":[
				0.22345663607120514,
				0.32458099722862244,
				-0.30623650550842285
			],
			"type":"VEC3"
		},
		{
			"bufferView":19,
			"componentType":5126,
			"count":195,
			"type":"VEC3"
		},
		{
			"bufferView":20,
			"componentType":5126,
			"count":195,
			"type":"VEC2"
		},
		{
			"bufferView":21,
			"componentType":5126,
			"count":195,
			"type":"VEC2"
		},
		{
			"bufferView":22,
			"componentType":5126,
			"count":195,
			"type":"VEC2"
		},
		{
			"bufferView":23,
			"componentType":5123,
			"count":540,
			"type":"SCALAR"
		},
		{
			"bufferView":24,
			"componentType":5126,
			"count":178,
			"max":[
				0.1588001251220703,
				0.15758541226387024,
				-0.1255115568637848
			],
			"min":[
				0.14747020602226257,
				0.1438816636800766,
				-0.13929109275341034
			],
			"type":"VEC3"
		},
		{
			"bufferView":25,
			"componentType":5126,
			"count":178,
			"type":"VEC3"
		},
		{
			"bufferView":26,
			"componentType":5126,
			"count":178,
			"type":"VEC2"
		},
		{
			"bufferView":27,
			"componentType":5126,
			"count":178,
			"type":"VEC2"
		},
		{
			"bufferView":28,
			"componentType":5126,
			"count":178,
			"type":"VEC2"
		},
		{
			"bufferView":29,
			"componentType":5123,
			"count":540,
			"type":"SCALAR"
		},
		{
			"bufferView":30,
			"componentType":5126,
			"count":187,
			"max":[
				0.20075979828834534,
				0.20202136039733887,
				-0.17978116869926453
			],
			"min":[
				0.1894298493862152,
				0.18831759691238403,
				-0.19356070458889008
			],
			"type":"VEC3"
		},
		{
			"bufferView":31,
			"componentType":5126,
			"count":187,
			"type":"VEC3"
		},
		{
			"bufferView":32,
			"componentType":5126,
			"count":187,
			"type":"VEC2"
		},
		{
			"bufferView":33,
			"componentType":5126,
			"count":187,
			"type":"VEC2"
		},
		{
			"bufferView":34,
			"componentType":5126,
			"count":187,
			"type":"VEC2"
		},
		{
			"bufferView":35,
			"componentType":5123,
			"count":540,
			"type":"SCALAR"
		},
		{
			"bufferView":36,
			"componentType":5126,
			"count":194,
			"max":[
				0.2169806808233261,
				0.21099239587783813,
				-0.20739363133907318
			],
			"min":[
				0.2056507170200348,
				0.1972886323928833,
				-0.22117313742637634
			],
			"type":"VEC3"
		},
		{
			"bufferView":37,
			"componentType":5126,
			"count":194,
			"type":"VEC3"
		},
		{
			"bufferView":38,
			"componentType":5126,
			"count":194,
			"type":"VEC2"
		},
		{
			"bufferView":39,
			"componentType":5126,
			"count":194,
			"type":"VEC2"
		},
		{
			"bufferView":40,
			"componentType":5126,
			"count":194,
			"type":"VEC2"
		},
		{
			"bufferView":41,
			"componentType":5123,
			"count":540,
			"type":"SCALAR"
		},
		{
			"bufferView":42,
			"componentType":5126,
			"count":196,
			"max":[
				0.2860705852508545,
				0.3190006613731384,
				-0.26859548687934875
			],
			"min":[
				0.27474069595336914,
				0.305296927690506,
				-0.2823750376701355
			],
			"type":"VEC3"
		},
		{
			"bufferView":43,
			"componentType":5126,
			"count":196,
			"type":"VEC3"
		},
		{
			"bufferView":44,
			"componentType":5126,
			"count":196,
			"type":"VEC2"
		},
		{
			"bufferView":45,
			"componentType":5126,
			"count":196,
			"type":"VEC2"
		},
		{
			"bufferView":46,
			"componentType":5126,
			"count":196,
			"type":"VEC2"
		},
		{
			"bufferView":47,
			"componentType":5123,
			"count":540,
			"type":"SCALAR"
		},
		{
			"bufferView":48,
			"componentType":5126,
			"count":130,
			"max":[
				0.15774579346179962,
				0.17485420405864716,
				-0.12755751609802246
			],
			"min":[
				0.09711375832557678,
				0.1459825336933136,
				-0.16119590401649475
			],
			"type":"VEC3"
		},
		{
			"bufferView":49,
			"componentType":5126,
			"count":130,
			"type":"VEC3"
		},
		{
			"bufferView":50,
			"componentType":5126,
			"count":130,
			"type":"VEC2"
		},
		{
			"bufferView":51,
			"componentType":5126,
			"count":130,
			"type":"VEC2"
		},
		{
			"bufferView":52,
			"componentType":5126,
			"count":130,
			"type":"VEC2"
		},
		{
			"bufferView":53,
			"componentType":5123,
			"count":720,
			"type":"SCALAR"
		},
		{
			"bufferView":54,
			"componentType":5126,
			"count":130,
			"max":[
				0.19970542192459106,
				0.2192901074886322,
				-0.18182717263698578
			],
			"min":[
				0.13907340168952942,
				0.19041845202445984,
				-0.2154655158519745
			],
			"type":"VEC3"
		},
		{
			"bufferView":55,
			"componentType":5126,
			"count":130,
			"type":"VEC3"
		},
		{
			"bufferView":56,
			"componentType":5126,
			"count":130,
			"type":"VEC2"
		},
		{
			"bufferView":57,
			"componentType":5126,
			"count":130,
			"type":"VEC2"
		},
		{
			"bufferView":58,
			"componentType":5126,
			"count":130,
			"type":"VEC2"
		},
		{
			"bufferView":59,
			"componentType":5123,
			"count":720,
			"type":"SCALAR"
		},
		{
			"bufferView":60,
			"componentType":5126,
			"count":130,
			"max":[
				0.21592634916305542,
				0.22826117277145386,
				-0.20943957567214966
			],
			"min":[
				0.1552942395210266,
				0.1993895173072815,
				-0.24307796359062195
			],
			"type":"VEC3"
		},
		{
			"bufferView":61,
			"componentType":5126,
			"count":130,
			"type":"VEC3"
		},
		{
			"bufferView":62,
			"componentType":5126,
			"count":130,
			"type":"VEC2"
		},
		{
			"bufferView":63,
			"componentType":5126,
			"count":130,
			"type":"VEC2"
		},
		{
			"bufferView":64,
			"componentType":5126,
			"count":130,
			"type":"VEC2"
		},
		{
			"bufferView":65,
			"componentType":5123,
			"count":720,
			"type":"SCALAR"
		},
		{
			"bufferView":66,
			"componentType":5126,
			"count":130,
			"max":[
				0.285016268491745,
				0.33626943826675415,
				-0.2706415057182312
			],
			"min":[
				0.22438421845436096,
				0.3073978126049042,
				-0.3042798340320587
			],
			"type":"VEC3"
		},
		{
			"bufferView":67,
			"componentType":5126,
			"count":130,
			"type":"VEC3"
		},
		{
			"bufferView":68,
			"componentType":5126,
			"count":130,
			"type":"VEC2"
		},
		{
			"bufferView":69,
			"componentType":5126,
			"count":130,
			"type":"VEC2"
		},
		{
			"bufferView":70,
			"componentType":5126,
			"count":130,
			"type":"VEC2"
		},
		{
			"bufferView":71,
			"componentType":5123,
			"count":720,
			"type":"SCALAR"
		},
		{
			"bufferView":72,
			"componentType":5126,
			"count":2375,
			"max":[
				0.24541227519512177,
				0.35358572006225586,
				-0.13272598385810852
			],
			"min":[
				0.08492159843444824,
				0.1423901468515396,
				-0.3305799663066864
			],
			"type":"VEC3"
		},
		{
			"bufferView":73,
			"componentType":5126,
			"count":2375,
			"type":"VEC3"
		},
		{
			"bufferView":74,
			"componentType":5126,
			"count":2375,
			"type":"VEC2"
		},
		{
			"bufferView":75,
			"componentType":5126,
			"count":2375,
			"type":"VEC2"
		},
		{
			"bufferView":76,
			"componentType":5126,
			"count":2375,
			"type":"VEC2"
		},
		{
			"bufferView":77,
			"componentType":5123,
			"count":9132,
			"type":"SCALAR"
		},
		{
			"bufferView":78,
			"componentType":5126,
			"count":2683,
			"max":[
				0.2981176972389221,
				0.33505773544311523,
				-0.10966085642576218
			],
			"min":[
				0.13762831687927246,
				0.1238633394241333,
				-0.3075152039527893
			],
			"type":"VEC3"
		},
		{
			"bufferView":79,
			"componentType":5126,
			"count":2683,
			"type":"VEC3"
		},
		{
			"bufferView":80,
			"componentType":5126,
			"count":2683,
			"type":"VEC2"
		},
		{
			"bufferView":81,
			"componentType":5126,
			"count":2683,
			"type":"VEC2"
		},
		{
			"bufferView":82,
			"componentType":5126,
			"count":2683,
			"type":"VEC2"
		},
		{
			"bufferView":83,
			"componentType":5123,
			"count":10278,
			"type":"SCALAR"
		},
		{
			"bufferView":84,
			"componentType":5126,
			"count":397,
			"max":[
				0.2980254590511322,
				0.32026025652885437,
				-0.1856982260942459
			],
			"min":[
				0.2004271149635315,
				0.2174840271472931,
				-0.3049805760383606
			],
			"type":"VEC3"
		},
		{
			"bufferView":85,
			"componentType":5126,
			"count":397,
			"type":"VEC3"
		},
		{
			"bufferView":86,
			"componentType":5126,
			"count":397,
			"type":"VEC2"
		},
		{
			"bufferView":87,
			"componentType":5126,
			"count":397,
			"type":"VEC2"
		},
		{
			"bufferView":88,
			"componentType":5126,
			"count":397,
			"type":"VEC2"
		},
		{
			"bufferView":89,
			"componentType":5123,
			"count":1950,
			"type":"SCALAR"
		},
		{
			"bufferView":90,
			"componentType":5126,
			"count":359,
			"max":[
				0.24532583355903625,
				0.33911779522895813,
				-0.21302014589309692
			],
			"min":[
				0.1565893292427063,
				0.2414112687110901,
				-0.3282715678215027
			],
			"type":"VEC3"
		},
		{
			"bufferView":91,
			"componentType":5126,
			"count":359,
			"type":"VEC3"
		},
		{
			"bufferView":92,
			"componentType":5126,
			"count":359,
			"type":"VEC2"
		},
		{
			"bufferView":93,
			"componentType":5126,
			"count":359,
			"type":"VEC2"
		},
		{
			"bufferView":94,
			"componentType":5126,
			"count":359,
			"type":"VEC2"
		},
		{
			"bufferView":95,
			"componentType":5123,
			"count":1236,
			"type":"SCALAR"
		},
		{
			"bufferView":96,
			"componentType":5126,
			"count":667,
			"max":[
				0.3364204168319702,
				0.3302406668663025,
				-0.26018399000167847
			],
			"min":[
				0.2615886628627777,
				0.271200954914093,
				-0.4228426516056061
			],
			"type":"VEC3"
		},
		{
			"bufferView":97,
			"componentType":5126,
			"count":667,
			"type":"VEC3"
		},
		{
			"bufferView":98,
			"componentType":5126,
			"count":667,
			"type":"VEC2"
		},
		{
			"bufferView":99,
			"componentType":5126,
			"count":667,
			"type":"VEC2"
		},
		{
			"bufferView":100,
			"componentType":5123,
			"count":2202,
			"type":"SCALAR"
		},
		{
			"bufferView":101,
			"componentType":5126,
			"count":146,
			"max":[
				0.2196139693260193,
				0.30024582147598267,
				-0.22421424090862274
			],
			"min":[
				0.19279903173446655,
				0.25516802072525024,
				-0.2683504819869995
			],
			"type":"VEC3"
		},
		{
			"bufferView":102,
			"componentType":5126,
			"count":146,
			"type":"VEC3"
		},
		{
			"bufferView":103,
			"componentType":5126,
			"count":146,
			"type":"VEC2"
		},
		{
			"bufferView":104,
			"componentType":5123,
			"count":720,
			"type":"SCALAR"
		},
		{
			"bufferView":105,
			"componentType":5126,
			"count":756,
			"max":[
				0.30461281538009644,
				0.4255143702030182,
				-0.275181382894516
			],
			"min":[
				0.23192481696605682,
				0.30490604043006897,
				-0.34783661365509033
			],
			"type":"VEC3"
		},
		{
			"bufferView":106,
			"componentType":5126,
			"count":756,
			"type":"VEC3"
		},
		{
			"bufferView":107,
			"componentType":5126,
			"count":756,
			"type":"VEC2"
		},
		{
			"bufferView":108,
			"componentType":5126,
			"count":756,
			"type":"VEC2"
		},
		{
			"bufferView":109,
			"componentType":5123,
			"count":2640,
			"type":"SCALAR"
		},
		{
			"bufferView":110,
			"componentType":5126,
			"count":831,
			"max":[
				0.2580110430717468,
				0.4514572322368622,
				-0.23160649836063385
			],
			"min":[
				0.2244965136051178,
				0.3083193600177765,
				-0.3164670169353485
			],
			"type":"VEC3"
		},
		{
			"bufferView":111,
			"componentType":5126,
			"count":831,
			"type":"VEC3"
		},
		{
			"bufferView":112,
			"componentType":5126,
			"count":831,
			"type":"VEC2"
		},
		{
			"bufferView":113,
			"componentType":5126,
			"count":831,
			"type":"VEC2"
		},
		{
			"bufferView":114,
			"componentType":5123,
			"count":2994,
			"type":"SCALAR"
		},
		{
			"bufferView":115,
			"componentType":5126,
			"count":2869,
			"max":[
				0.40396714210510254,
				0.41174763441085815,
				-0.26505881547927856
			],
			"min":[
				0.25156092643737793,
				0.3004089891910553,
				-0.4984779953956604
			],
			"type":"VEC3"
		},
		{
			"bufferView":116,
			"componentType":5126,
			"count":2869,
			"type":"VEC3"
		},
		{
			"bufferView":117,
			"componentType":5126,
			"count":2869,
			"type":"VEC2"
		},
		{
			"bufferView":118,
			"componentType":5126,
			"count":2869,
			"type":"VEC2"
		},
		{
			"bufferView":119,
			"componentType":5123,
			"count":5388,
			"type":"SCALAR"
		},
		{
			"bufferView":120,
			"componentType":5126,
			"count":2253,
			"max":[
				1.0192482471466064,
				113.34296417236328,
				-0.507675051689148
			],
			"min":[
				0.9816203713417053,
				113.26627349853516,
				-0.5617887377738953
			],
			"type":"VEC3"
		},
		{
			"bufferView":121,
			"componentType":5126,
			"count":2253,
			"type":"VEC3"
		},
		{
			"bufferView":122,
			"componentType":5126,
			"count":2253,
			"type":"VEC2"
		},
		{
			"bufferView":123,
			"componentType":5126,
			"count":2253,
			"type":"VEC2"
		},
		{
			"bufferView":124,
			"componentType":5121,
			"count":2253,
			"type":"VEC4"
		},
		{
			"bufferView":125,
			"componentType":5126,
			"count":2253,
			"type":"VEC4"
		},
		{
			"bufferView":126,
			"componentType":5123,
			"count":8808,
			"type":"SCALAR"
		},
		{
			"bufferView":127,
			"componentType":5126,
			"count":4,
			"type":"MAT4"
		},
		{
			"bufferView":128,
			"componentType":5126,
			"count":905,
			"max":[
				0.38551604747772217,
				0.4904771149158478,
				-0.26940029859542847
			],
			"min":[
				0.24192996323108673,
				0.30066511034965515,
				-0.4285109043121338
			],
			"type":"VEC3"
		},
		{
			"bufferView":129,
			"componentType":5126,
			"count":905,
			"type":"VEC3"
		},
		{
			"bufferView":130,
			"componentType":5126,
			"count":905,
			"type":"VEC2"
		},
		{
			"bufferView":131,
			"componentType":5126,
			"count":905,
			"type":"VEC2"
		},
		{
			"bufferView":132,
			"componentType":5123,
			"count":3162,
			"type":"SCALAR"
		},
		{
			"bufferView":133,
			"componentType":5126,
			"count":496,
			"max":[
				0.2040013074874878,
				0.34168481826782227,
				-0.16064907610416412
			],
			"min":[
				0.14197658002376556,
				0.1263153851032257,
				-0.21007689833641052
			],
			"type":"VEC3"
		},
		{
			"bufferView":134,
			"componentType":5126,
			"count":496,
			"type":"VEC3"
		},
		{
			"bufferView":135,
			"componentType":5126,
			"count":496,
			"type":"VEC2"
		},
		{
			"bufferView":136,
			"componentType":5126,
			"count":496,
			"type":"VEC2"
		},
		{
			"bufferView":137,
			"componentType":5123,
			"count":1788,
			"type":"SCALAR"
		},
		{
			"bufferView":138,
			"componentType":5126,
			"count":867,
			"max":[
				0.12219687551259995,
				0.1836734265089035,
				-0.12211567163467407
			],
			"min":[
				0.0591265931725502,
				0.0385710671544075,
				-0.17457593977451324
			],
			"type":"VEC3"
		},
		{
			"bufferView":139,
			"componentType":5126,
			"count":867,
			"type":"VEC3"
		},
		{
			"bufferView":140,
			"componentType":5126,
			"count":867,
			"type":"VEC2"
		},
		{
			"bufferView":141,
			"componentType":5126,
			"count":867,
			"type":"VEC2"
		},
		{
			"bufferView":142,
			"componentType":5123,
			"count":2898,
			"type":"SCALAR"
		},
		{
			"bufferView":143,
			"componentType":5126,
			"count":657,
			"max":[
				0.15576282143592834,
				0.16726592183113098,
				0.08131179958581924
			],
			"min":[
				0.021206585690379143,
				0.09981357306241989,
				-0.1514568328857422
			],
			"type":"VEC3"
		},
		{
			"bufferView":144,
			"componentType":5126,
			"count":657,
			"type":"VEC3"
		},
		{
			"bufferView":145,
			"componentType":5126,
			"count":657,
			"type":"VEC2"
		},
		{
			"bufferView":146,
			"componentType":5126,
			"count":657,
			"type":"VEC2"
		},
		{
			"bufferView":147,
			"componentType":5123,
			"count":2274,
			"type":"SCALAR"
		},
		{
			"bufferView":148,
			"componentType":5126,
			"count":943,
			"max":[
				0.12978562712669373,
				0.18055041134357452,
				-0.060442619025707245
			],
			"min":[
				0.043557990342378616,
				0.07236239314079285,
				-0.16824790835380554
			],
			"type":"VEC3"
		},
		{
			"bufferView":149,
			"componentType":5126,
			"count":943,
			"type":"VEC3"
		},
		{
			"bufferView":150,
			"componentType":5126,
			"count":943,
			"type":"VEC2"
		},
		{
			"bufferView":151,
			"componentType":5126,
			"count":943,
			"type":"VEC2"
		},
		{
			"bufferView":152,
			"componentType":5123,
			"count":3612,
			"type":"SCALAR"
		},
		{
			"bufferView":153,
			"componentType":5126,
			"count":1661,
			"max":[
				0.2708256244659424,
				0.2171958088874817,
				-0.20940156280994415
			],
			"min":[
				0.19322924315929413,
				0.16367894411087036,
				-0.3460851311683655
			],
			"type":"VEC3"
		},
		{
			"bufferView":154,
			"componentType":5126,
			"count":1661,
			"type":"VEC3"
		},
		{
			"bufferView":155,
			"componentType":5126,
			"count":1661,
			"type":"VEC2"
		},
		{
			"bufferView":156,
			"componentType":5126,
			"count":1661,
			"type":"VEC2"
		},
		{
			"bufferView":157,
			"componentType":5123,
			"count":8886,
			"type":"SCALAR"
		},
		{
			"bufferView":158,
			"componentType":5126,
			"count":842,
			"max":[
				0.1960771083831787,
				0.22549954056739807,
				-0.21386787295341492
			],
			"min":[
				0.16366970539093018,
				0.07823260128498077,
				-0.2984046936035156
			],
			"type":"VEC3"
		},
		{
			"bufferView":159,
			"componentType":5126,
			"count":842,
			"type":"VEC3"
		},
		{
			"bufferView":160,
			"componentType":5126,
			"count":842,
			"type":"VEC2"
		},
		{
			"bufferView":161,
			"componentType":5126,
			"count":842,
			"type":"VEC2"
		},
		{
			"bufferView":162,
			"componentType":5123,
			"count":2772,
			"type":"SCALAR"
		},
		{
			"bufferView":163,
			"componentType":5126,
			"count":627,
			"max":[
				0.17563140392303467,
				0.23019692301750183,
				-0.22341910004615784
			],
			"min":[
				0.12460865080356598,
				0.09151928126811981,
				-0.24566131830215454
			],
			"type":"VEC3"
		},
		{
			"bufferView":164,
			"componentType":5126,
			"count":627,
			"type":"VEC3"
		},
		{
			"bufferView":165,
			"componentType":5126,
			"count":627,
			"type":"VEC2"
		},
		{
			"bufferView":166,
			"componentType":5126,
			"count":627,
			"type":"VEC2"
		},
		{
			"bufferView":167,
			"componentType":5123,
			"count":2274,
			"type":"SCALAR"
		},
		{
			"bufferView":168,
			"componentType":5126,
			"count":610,
			"max":[
				0.22178767621517181,
				0.2221621572971344,
				-0.20952898263931274
			],
			"min":[
				0.18584930896759033,
				0.1206555888056755,
				-0.3312627077102661
			],
			"type":"VEC3"
		},
		{
			"bufferView":169,
			"componentType":5126,
			"count":610,
			"type":"VEC3"
		},
		{
			"bufferView":170,
			"componentType":5126,
			"count":610,
			"type":"VEC2"
		},
		{
			"bufferView":171,
			"componentType":5126,
			"count":610,
			"type":"VEC2"
		},
		{
			"bufferView":172,
			"componentType":5123,
			"count":1974,
			"type":"SCALAR"
		},
		{
			"bufferView":173,
			"componentType":5126,
			"count":502,
			"max":[
				0.24741420149803162,
				0.35251325368881226,
				-0.1317945420742035
			],
			"min":[
				0.09120707958936691,
				0.14163736999034882,
				-0.3291141092777252
			],
			"type":"VEC3"
		},
		{
			"bufferView":174,
			"componentType":5126,
			"count":502,
			"type":"VEC3"
		},
		{
			"bufferView":175,
			"componentType":5126,
			"count":502,
			"type":"VEC2"
		},
		{
			"bufferView":176,
			"componentType":5126,
			"count":502,
			"type":"VEC2"
		},
		{
			"bufferView":177,
			"componentType":5123,
			"count":1416,
			"type":"SCALAR"
		},
		{
			"bufferView":178,
			"componentType":5126,
			"count":579,
			"max":[
				0.25517594814300537,
				0.3495946228504181,
				-0.12818315625190735
			],
			"min":[
				0.09896884858608246,
				0.13871875405311584,
				-0.32550275325775146
			],
			"type":"VEC3"
		},
		{
			"bufferView":179,
			"componentType":5126,
			"count":579,
			"type":"VEC3"
		},
		{
			"bufferView":180,
			"componentType":5126,
			"count":579,
			"type":"VEC2"
		},
		{
			"bufferView":181,
			"componentType":5126,
			"count":579,
			"type":"VEC2"
		},
		{
			"bufferView":182,
			"componentType":5123,
			"count":1632,
			"type":"SCALAR"
		},
		{
			"bufferView":183,
			"componentType":5126,
			"count":551,
			"max":[
				0.26608216762542725,
				0.34581637382507324,
				-0.12310868501663208
			],
			"min":[
				0.10901689529418945,
				0.13461773097515106,
				-0.32082754373550415
			],
			"type":"VEC3"
		},
		{
			"bufferView":184,
			"componentType":5126,
			"count":551,
			"type":"VEC3"
		},
		{
			"bufferView":185,
			"componentType":5126,
			"count":551,
			"type":"VEC2"
		},
		{
			"bufferView":186,
			"componentType":5126,
			"count":551,
			"type":"VEC2"
		},
		{
			"bufferView":187,
			"componentType":5123,
			"count":1548,
			"type":"SCALAR"
		},
		{
			"bufferView":188,
			"componentType":5126,
			"count":541,
			"max":[
				0.2752610743045807,
				0.34204214811325073,
				-0.12046961486339569
			],
			"min":[
				0.11905395984649658,
				0.1311662495136261,
				-0.3161575198173523
			],
			"type":"VEC3"
		},
		{
			"bufferView":189,
			"componentType":5126,
			"count":541,
			"type":"VEC3"
		},
		{
			"bufferView":190,
			"componentType":5126,
			"count":541,
			"type":"VEC2"
		},
		{
			"bufferView":191,
			"componentType":5126,
			"count":541,
			"type":"VEC2"
		},
		{
			"bufferView":192,
			"componentType":5123,
			"count":1500,
			"type":"SCALAR"
		},
		{
			"bufferView":193,
			"componentType":5126,
			"count":587,
			"max":[
				0.28254929184913635,
				0.33930158615112305,
				-0.11707855761051178
			],
			"min":[
				0.12634216248989105,
				0.1284256875514984,
				-0.312766432762146
			],
			"type":"VEC3"
		},
		{
			"bufferView":194,
			"componentType":5126,
			"count":587,
			"type":"VEC3"
		},
		{
			"bufferView":195,
			"componentType":5126,
			"count":587,
			"type":"VEC2"
		},
		{
			"bufferView":196,
			"componentType":5126,
			"count":587,
			"type":"VEC2"
		},
		{
			"bufferView":197,
			"componentType":5123,
			"count":1536,
			"type":"SCALAR"
		},
		{
			"bufferView":198,
			"componentType":5126,
			"count":313,
			"max":[
				0.2854098081588745,
				0.3385487198829651,
				-0.26351791620254517
			],
			"min":[
				0.25197187066078186,
				0.2859124541282654,
				-0.310452938079834
			],
			"type":"VEC3"
		},
		{
			"bufferView":199,
			"componentType":5126,
			"count":313,
			"type":"VEC3"
		},
		{
			"bufferView":200,
			"componentType":5126,
			"count":313,
			"type":"VEC2"
		},
		{
			"bufferView":201,
			"componentType":5126,
			"count":313,
			"type":"VEC2"
		},
		{
			"bufferView":202,
			"componentType":5123,
			"count":708,
			"type":"SCALAR"
		},
		{
			"bufferView":203,
			"componentType":5126,
			"count":737,
			"max":[
				0.2918331027030945,
				0.33581066131591797,
				-0.11112727224826813
			],
			"min":[
				0.13562597334384918,
				0.12493474781513214,
				-0.30844685435295105
			],
			"type":"VEC3"
		},
		{
			"bufferView":204,
			"componentType":5126,
			"count":737,
			"type":"VEC3"
		},
		{
			"bufferView":205,
			"componentType":5126,
			"count":737,
			"type":"VEC2"
		},
		{
			"bufferView":206,
			"componentType":5126,
			"count":737,
			"type":"VEC2"
		},
		{
			"bufferView":207,
			"componentType":5123,
			"count":1896,
			"type":"SCALAR"
		},
		{
			"bufferView":208,
			"componentType":5126,
			"count":1341,
			"max":[
				0.26177048683166504,
				0.3255930542945862,
				-0.3197583556175232
			],
			"min":[
				0.2263488620519638,
				0.28916770219802856,
				-0.342795729637146
			],
			"type":"VEC3"
		},
		{
			"bufferView":209,
			"componentType":5126,
			"count":1341,
			"type":"VEC3"
		},
		{
			"bufferView":210,
			"componentType":5126,
			"count":1341,
			"type":"VEC2"
		},
		{
			"bufferView":211,
			"componentType":5126,
			"count":1341,
			"type":"VEC2"
		},
		{
			"bufferView":212,
			"componentType":5126,
			"count":1341,
			"type":"VEC2"
		},
		{
			"bufferView":213,
			"componentType":5123,
			"count":7404,
			"type":"SCALAR"
		},
		{
			"bufferView":214,
			"componentType":5126,
			"count":1176,
			"max":[
				0.258388876914978,
				0.3325466513633728,
				-0.1562502086162567
			],
			"min":[
				0.1031307801604271,
				0.14462634921073914,
				-0.3411175608634949
			],
			"type":"VEC3"
		},
		{
			"bufferView":215,
			"componentType":5126,
			"count":1176,
			"type":"VEC3"
		},
		{
			"bufferView":216,
			"componentType":5126,
			"count":1176,
			"type":"VEC2"
		},
		{
			"bufferView":217,
			"componentType":5126,
			"count":1176,
			"type":"VEC2"
		},
		{
			"bufferView":218,
			"componentType":5123,
			"count":4428,
			"type":"SCALAR"
		},
		{
			"bufferView":219,
			"componentType":5126,
			"count":764,
			"max":[
				0.2595483660697937,
				0.3243241310119629,
				-0.15122967958450317
			],
			"min":[
				0.1102946400642395,
				0.13672474026679993,
				-0.3244090974330902
			],
			"type":"VEC3"
		},
		{
			"bufferView":220,
			"componentType":5126,
			"count":764,
			"type":"VEC3"
		},
		{
			"bufferView":221,
			"componentType":5126,
			"count":764,
			"type":"VEC2"
		},
		{
			"bufferView":222,
			"componentType":5126,
			"count":764,
			"type":"VEC2"
		},
		{
			"bufferView":223,
			"componentType":5123,
			"count":2772,
			"type":"SCALAR"
		},
		{
			"bufferView":224,
			"componentType":5126,
			"count":896,
			"max":[
				0.26889467239379883,
				0.32227665185928345,
				-0.11993543803691864
			],
			"min":[
				0.11209961771965027,
				0.13240846991539001,
				-0.31441736221313477
			],
			"type":"VEC3"
		},
		{
			"bufferView":225,
			"componentType":5126,
			"count":896,
			"type":"VEC3"
		},
		{
			"bufferView":226,
			"componentType":5126,
			"count":896,
			"type":"VEC2"
		},
		{
			"bufferView":227,
			"componentType":5126,
			"count":896,
			"type":"VEC2"
		},
		{
			"bufferView":228,
			"componentType":5123,
			"count":3420,
			"type":"SCALAR"
		},
		{
			"bufferView":229,
			"componentType":5126,
			"count":816,
			"max":[
				0.27547693252563477,
				0.3162021040916443,
				-0.1181519478559494
			],
			"min":[
				0.12122158706188202,
				0.12964528799057007,
				-0.3119572401046753
			],
			"type":"VEC3"
		},
		{
			"bufferView":230,
			"componentType":5126,
			"count":816,
			"type":"VEC3"
		},
		{
			"bufferView":231,
			"componentType":5126,
			"count":816,
			"type":"VEC2"
		},
		{
			"bufferView":232,
			"componentType":5126,
			"count":816,
			"type":"VEC2"
		},
		{
			"bufferView":233,
			"componentType":5123,
			"count":2916,
			"type":"SCALAR"
		},
		{
			"bufferView":234,
			"componentType":5126,
			"count":595,
			"max":[
				0.28463107347488403,
				0.3147578239440918,
				-0.1395999938249588
			],
			"min":[
				0.13820268213748932,
				0.1303589642047882,
				-0.3068881034851074
			],
			"type":"VEC3"
		},
		{
			"bufferView":235,
			"componentType":5126,
			"count":595,
			"type":"VEC3"
		},
		{
			"bufferView":236,
			"componentType":5126,
			"count":595,
			"type":"VEC2"
		},
		{
			"bufferView":237,
			"componentType":5126,
			"count":595,
			"type":"VEC2"
		},
		{
			"bufferView":238,
			"componentType":5123,
			"count":2184,
			"type":"SCALAR"
		}
	],
	"bufferViews":[
		{
			"buffer":0,
			"byteLength":2112,
			"byteOffset":0,
			"target":34962
		},
		{
			"buffer":0,
			"byteLength":2112,
			"byteOffset":2112,
			"target":34962
		},
		{
			"buffer":0,
			"byteLength":1408,
			"byteOffset":4224,
			"target":34962
		},
		{
			"buffer":0,
			"byteLength":1408,
			"byteOffset":5632,
			"target":34962
		},
		{
			"buffer":0,
			"byteLength":1408,
			"byteOffset":7040,
			"target":34962
		},
		{
			"buffer":0,
			"byteLength":1080,
			"byteOffset":8448,
			"target":34963
		},
		{
			"buffer":0,
			"byteLength":2220,
			"byteOffset":9528,
			"target":34962
		},
		{
			"buffer":0,
			"byteLength":2220,
			"byteOffset":11748,
			"target":34962
		},
		{
			"buffer":0,
			"byteLength":1480,
			"byteOffset":13968,
			"target":34962
		},
		{
			"buffer":0,
			"byteLength":1480,
			"byteOffset":15448,
			"target":34962
		},
		{
			"buffer":0,
			"byteLength":1480,
			"byteOffset":16928,
			"target":34962
		},
		{
			"buffer":0,
			"byteLength":1080,
			"byteOffset":18408,
			"target":34963
		},
		{
			"buffer":0,
			"byteLength":2208,
			"byteOffset":19488,
			"target":34962
		},
		{
			"buffer":0,
			"byteLength":2208,
			"byteOffset":21696,
			"target":34962
		},
		{
			"buffer":0,
			"byteLength":1472,
			"byteOffset":23904,
			"target":34962
		},
		{
			"buffer":0,
			"byteLength":1472,
			"byteOffset":25376,
			"target":34962
		},
		{
			"buffer":0,
			"byteLength":1472,
			"byteOffset":26848,
			"target":34962
		},
		{
			"buffer":0,
			"byteLength":1080,
			"byteOffset":28320,
			"target":34963
		},
		{
			"buffer":0,
			"byteLength":2340,
			"byteOffset":29400,
			"target":34962
		},
		{
			"buffer":0,
			"byteLength":2340,
			"byteOffset":31740,
			"target":34962
		},
		{
			"buffer":0,
			"byteLength":1560,
			"byteOffset":34080,
			"target":34962
		},
		{
			"buffer":0,
			"byteLength":1560,
			"byteOffset":35640,
			"target":34962
		},
		{
			"buffer":0,
			"byteLength":1560,
			"byteOffset":37200,
			"target":34962
		},
		{
			"buffer":0,
			"byteLength":1080,
			"byteOffset":38760,
			"target":34963
		},
		{
			"buffer":0,
			"byteLength":2136,
			"byteOffset":39840,
			"target":34962
		},
		{
			"buffer":0,
			"byteLength":2136,
			"byteOffset":41976,
			"target":34962
		},
		{
			"buffer":0,
			"byteLength":1424,
			"byteOffset":44112,
			"target":34962
		},
		{
			"buffer":0,
			"byteLength":1424,
			"byteOffset":45536,
			"target":34962
		},
		{
			"buffer":0,
			"byteLength":1424,
			"byteOffset":46960,
			"target":34962
		},
		{
			"buffer":0,
			"byteLength":1080,
			"byteOffset":48384,
			"target":34963
		},
		{
			"buffer":0,
			"byteLength":2244,
			"byteOffset":49464,
			"target":34962
		},
		{
			"buffer":0,
			"byteLength":2244,
			"byteOffset":51708,
			"target":34962
		},
		{
			"buffer":0,
			"byteLength":1496,
			"byteOffset":53952,
			"target":34962
		},
		{
			"buffer":0,
			"byteLength":1496,
			"byteOffset":55448,
			"target":34962
		},
		{
			"buffer":0,
			"byteLength":1496,
			"byteOffset":56944,
			"target":34962
		},
		{
			"buffer":0,
			"byteLength":1080,
			"byteOffset":58440,
			"target":34963
		},
		{
			"buffer":0,
			"byteLength":2328,
			"byteOffset":59520,
			"target":34962
		},
		{
			"buffer":0,
			"byteLength":2328,
			"byteOffset":61848,
			"target":34962
		},
		{
			"buffer":0,
			"byteLength":1552,
			"byteOffset":64176,
			"target":34962
		},
		{
			"buffer":0,
			"byteLength":1552,
			"byteOffset":65728,
			"target":34962
		},
		{
			"buffer":0,
			"byteLength":1552,
			"byteOffset":67280,
			"target":34962
		},
		{
			"buffer":0,
			"byteLength":1080,
			"byteOffset":68832,
			"target":34963
		},
		{
			"buffer":0,
			"byteLength":2352,
			"byteOffset":69912,
			"target":34962
		},
		{
			"buffer":0,
			"byteLength":2352,
			"byteOffset":72264,
			"target":34962
		},
		{
			"buffer":0,
			"byteLength":1568,
			"byteOffset":74616,
			"target":34962
		},
		{
			"buffer":0,
			"byteLength":1568,
			"byteOffset":76184,
			"target":34962
		},
		{
			"buffer":0,
			"byteLength":1568,
			"byteOffset":77752,
			"target":34962
		},
		{
			"buffer":0,
			"byteLength":1080,
			"byteOffset":79320,
			"target":34963
		},
		{
			"buffer":0,
			"byteLength":1560,
			"byteOffset":80400,
			"target":34962
		},
		{
			"buffer":0,
			"byteLength":1560,
			"byteOffset":81960,
			"target":34962
		},
		{
			"buffer":0,
			"byteLength":1040,
			"byteOffset":83520,
			"target":34962
		},
		{
			"buffer":0,
			"byteLength":1040,
			"byteOffset":84560,
			"target":34962
		},
		{
			"buffer":0,
			"byteLength":1040,
			"byteOffset":85600,
			"target":34962
		},
		{
			"buffer":0,
			"byteLength":1440,
			"byteOffset":86640,
			"target":34963
		},
		{
			"buffer":0,
			"byteLength":1560,
			"byteOffset":88080,
			"target":34962
		},
		{
			"buffer":0,
			"byteLength":1560,
			"byteOffset":89640,
			"target":34962
		},
		{
			"buffer":0,
			"byteLength":1040,
			"byteOffset":91200,
			"target":34962
		},
		{
			"buffer":0,
			"byteLength":1040,
			"byteOffset":92240,
			"target":34962
		},
		{
			"buffer":0,
			"byteLength":1040,
			"byteOffset":93280,
			"target":34962
		},
		{
			"buffer":0,
			"byteLength":1440,
			"byteOffset":94320,
			"target":34963
		},
		{
			"buffer":0,
			"byteLength":1560,
			"byteOffset":95760,
			"target":34962
		},
		{
			"buffer":0,
			"byteLength":1560,
			"byteOffset":97320,
			"target":34962
		},
		{
			"buffer":0,
			"byteLength":1040,
			"byteOffset":98880,
			"target":34962
		},
		{
			"buffer":0,
			"byteLength":1040,
			"byteOffset":99920,
			"target":34962
		},
		{
			"buffer":0,
			"byteLength":1040,
			"byteOffset":100960,
			"target":34962
		},
		{
			"buffer":0,
			"byteLength":1440,
			"byteOffset":102000,
			"target":34963
		},
		{
			"buffer":0,
			"byteLength":1560,
			"byteOffset":103440,
			"target":34962
		},
		{
			"buffer":0,
			"byteLength":1560,
			"byteOffset":105000,
			"target":34962
		},
		{
			"buffer":0,
			"byteLength":1040,
			"byteOffset":106560,
			"target":34962
		},
		{
			"buffer":0,
			"byteLength":1040,
			"byteOffset":107600,
			"target":34962
		},
		{
			"buffer":0,
			"byteLength":1040,
			"byteOffset":108640,
			"target":34962
		},
		{
			"buffer":0,
			"byteLength":1440,
			"byteOffset":109680,
			"target":34963
		},
		{
			"buffer":0,
			"byteLength":28500,
			"byteOffset":111120,
			"target":34962
		},
		{
			"buffer":0,
			"byteLength":28500,
			"byteOffset":139620,
			"target":34962
		},
		{
			"buffer":0,
			"byteLength":19000,
			"byteOffset":168120,
			"target":34962
		},
		{
			"buffer":0,
			"byteLength":19000,
			"byteOffset":187120,
			"target":34962
		},
		{
			"buffer":0,
			"byteLength":19000,
			"byteOffset":206120,
			"target":34962
		},
		{
			"buffer":0,
			"byteLength":18264,
			"byteOffset":225120,
			"target":34963
		},
		{
			"buffer":0,
			"byteLength":32196,
			"byteOffset":243384,
			"target":34962
		},
		{
			"buffer":0,
			"byteLength":32196,
			"byteOffset":275580,
			"target":34962
		},
		{
			"buffer":0,
			"byteLength":21464,
			"byteOffset":307776,
			"target":34962
		},
		{
			"buffer":0,
			"byteLength":21464,
			"byteOffset":329240,
			"target":34962
		},
		{
			"buffer":0,
			"byteLength":21464,
			"byteOffset":350704,
			"target":34962
		},
		{
			"buffer":0,
			"byteLength":20556,
			"byteOffset":372168,
			"target":34963
		},
		{
			"buffer":0,
			"byteLength":4764,
			"byteOffset":392724,
			"target":34962
		},
		{
			"buffer":0,
			"byteLength":4764,
			"byteOffset":397488,
			"target":34962
		},
		{
			"buffer":0,
			"byteLength":3176,
			"byteOffset":402252,
			"target":34962
		},
		{
			"buffer":0,
			"byteLength":3176,
			"byteOffset":405428,
			"target":34962
		},
		{
			"buffer":0,
			"byteLength":3176,
			"byteOffset":408604,
			"target":34962
		},
		{
			"buffer":0,
			"byteLength":3900,
			"byteOffset":411780,
			"target":34963
		},
		{
			"buffer":0,
			"byteLength":4308,
			"byteOffset":415680,
			"target":34962
		},
		{
			"buffer":0,
			"byteLength":4308,
			"byteOffset":419988,
			"target":34962
		},
		{
			"buffer":0,
			"byteLength":2872,
			"byteOffset":424296,
			"target":34962
		},
		{
			"buffer":0,
			"byteLength":2872,
			"byteOffset":427168,
			"target":34962
		},
		{
			"buffer":0,
			"byteLength":2872,
			"byteOffset":430040,
			"target":34962
		},
		{
			"buffer":0,
			"byteLength":2472,
			"byteOffset":432912,
			"target":34963
		},
		{
			"buffer":0,
			"byteLength":8004,
			"byteOffset":435384,
			"target":34962
		},
		{
			"buffer":0,
			"byteLength":8004,
			"byteOffset":443388,
			"target":34962
		},
		{
			"buffer":0,
			"byteLength":5336,
			"byteOffset":451392,
			"target":34962
		},
		{
			"buffer":0,
			"byteLength":5336,
			"byteOffset":456728,
			"target":34962
		},
		{
			"buffer":0,
			"byteLength":4404,
			"byteOffset":462064,
			"target":34963
		},
		{
			"buffer":0,
			"byteLength":1752,
			"byteOffset":466468,
			"target":34962
		},
		{
			"buffer":0,
			"byteLength":1752,
			"byteOffset":468220,
			"target":34962
		},
		{
			"buffer":0,
			"byteLength":1168,
			"byteOffset":469972,
			"target":34962
		},
		{
			"buffer":0,
			"byteLength":1440,
			"byteOffset":471140,
			"target":34963
		},
		{
			"buffer":0,
			"byteLength":9072,
			"byteOffset":472580,
			"target":34962
		},
		{
			"buffer":0,
			"byteLength":9072,
			"byteOffset":481652,
			"target":34962
		},
		{
			"buffer":0,
			"byteLength":6048,
			"byteOffset":490724,
			"target":34962
		},
		{
			"buffer":0,
			"byteLength":6048,
			"byteOffset":496772,
			"target":34962
		},
		{
			"buffer":0,
			"byteLength":5280,
			"byteOffset":502820,
			"target":34963
		},
		{
			"buffer":0,
			"byteLength":9972,
			"byteOffset":508100,
			"target":34962
		},
		{
			"buffer":0,
			"byteLength":9972,
			"byteOffset":518072,
			"target":34962
		},
		{
			"buffer":0,
			"byteLength":6648,
			"byteOffset":528044,
			"target":34962
		},
		{
			"buffer":0,
			"byteLength":6648,
			"byteOffset":534692,
			"target":34962
		},
		{
			"buffer":0,
			"byteLength":5988,
			"byteOffset":541340,
			"target":34963
		},
		{
			"buffer":0,
			"byteLength":34428,
			"byteOffset":547328,
			"target":34962
		},
		{
			"buffer":0,
			"byteLength":34428,
			"byteOffset":581756,
			"target":34962
		},
		{
			"buffer":0,
			"byteLength":22952,
			"byteOffset":616184,
			"target":34962
		},
		{
			"buffer":0,
			"byteLength":22952,
			"byteOffset":639136,
			"target":34962
		},
		{
			"buffer":0,
			"byteLength":10776,
			"byteOffset":662088,
			"target":34963
		},
		{
			"buffer":0,
			"byteLength":27036,
			"byteOffset":672864,
			"target":34962
		},
		{
			"buffer":0,
			"byteLength":27036,
			"byteOffset":699900,
			"target":34962
		},
		{
			"buffer":0,
			"byteLength":18024,
			"byteOffset":726936,
			"target":34962
		},
		{
			"buffer":0,
			"byteLength":18024,
			"byteOffset":744960,
			"target":34962
		},
		{
			"buffer":0,
			"byteLength":9012,
			"byteOffset":762984,
			"target":34962
		},
		{
			"buffer":0,
			"byteLength":36048,
			"byteOffset":771996,
			"target":34962
		},
		{
			"buffer":0,
			"byteLength":17616,
			"byteOffset":808044,
			"target":34963
		},
		{
			"buffer":0,
			"byteLength":256,
			"byteOffset":825660
		},
		{
			"buffer":0,
			"byteLength":10860,
			"byteOffset":825916,
			"target":34962
		},
		{
			"buffer":0,
			"byteLength":10860,
			"byteOffset":836776,
			"target":34962
		},
		{
			"buffer":0,
			"byteLength":7240,
			"byteOffset":847636,
			"target":34962
		},
		{
			"buffer":0,
			"byteLength":7240,
			"byteOffset":854876,
			"target":34962
		},
		{
			"buffer":0,
			"byteLength":6324,
			"byteOffset":862116,
			"target":34963
		},
		{
			"buffer":0,
			"byteLength":5952,
			"byteOffset":868440,
			"target":34962
		},
		{
			"buffer":0,
			"byteLength":5952,
			"byteOffset":874392,
			"target":34962
		},
		{
			"buffer":0,
			"byteLength":3968,
			"byteOffset":880344,
			"target":34962
		},
		{
			"buffer":0,
			"byteLength":3968,
			"byteOffset":884312,
			"target":34962
		},
		{
			"buffer":0,
			"byteLength":3576,
			"byteOffset":888280,
			"target":34963
		},
		{
			"buffer":0,
			"byteLength":10404,
			"byteOffset":891856,
			"target":34962
		},
		{
			"buffer":0,
			"byteLength":10404,
			"byteOffset":902260,
			"target":34962
		},
		{
			"buffer":0,
			"byteLength":6936,
			"byteOffset":912664,
			"target":34962
		},
		{
			"buffer":0,
			"byteLength":6936,
			"byteOffset":919600,
			"target":34962
		},
		{
			"buffer":0,
			"byteLength":5796,
			"byteOffset":926536,
			"target":34963
		},
		{
			"buffer":0,
			"byteLength":7884,
			"byteOffset":932332,
			"target":34962
		},
		{
			"buffer":0,
			"byteLength":7884,
			"byteOffset":940216,
			"target":34962
		},
		{
			"buffer":0,
			"byteLength":5256,
			"byteOffset":948100,
			"target":34962
		},
		{
			"buffer":0,
			"byteLength":5256,
			"byteOffset":953356,
			"target":34962
		},
		{
			"buffer":0,
			"byteLength":4548,
			"byteOffset":958612,
			"target":34963
		},
		{
			"buffer":0,
			"byteLength":11316,
			"byteOffset":963160,
			"target":34962
		},
		{
			"buffer":0,
			"byteLength":11316,
			"byteOffset":974476,
			"target":34962
		},
		{
			"buffer":0,
			"byteLength":7544,
			"byteOffset":985792,
			"target":34962
		},
		{
			"buffer":0,
			"byteLength":7544,
			"byteOffset":993336,
			"target":34962
		},
		{
			"buffer":0,
			"byteLength":7224,
			"byteOffset":1000880,
			"target":34963
		},
		{
			"buffer":0,
			"byteLength":19932,
			"byteOffset":1008104,
			"target":34962
		},
		{
			"buffer":0,
			"byteLength":19932,
			"byteOffset":1028036,
			"target":34962
		},
		{
			"buffer":0,
			"byteLength":13288,
			"byteOffset":1047968,
			"target":34962
		},
		{
			"buffer":0,
			"byteLength":13288,
			"byteOffset":1061256,
			"target":34962
		},
		{
			"buffer":0,
			"byteLength":17772,
			"byteOffset":1074544,
			"target":34963
		},
		{
			"buffer":0,
			"byteLength":10104,
			"byteOffset":1092316,
			"target":34962
		},
		{
			"buffer":0,
			"byteLength":10104,
			"byteOffset":1102420,
			"target":34962
		},
		{
			"buffer":0,
			"byteLength":6736,
			"byteOffset":1112524,
			"target":34962
		},
		{
			"buffer":0,
			"byteLength":6736,
			"byteOffset":1119260,
			"target":34962
		},
		{
			"buffer":0,
			"byteLength":5544,
			"byteOffset":1125996,
			"target":34963
		},
		{
			"buffer":0,
			"byteLength":7524,
			"byteOffset":1131540,
			"target":34962
		},
		{
			"buffer":0,
			"byteLength":7524,
			"byteOffset":1139064,
			"target":34962
		},
		{
			"buffer":0,
			"byteLength":5016,
			"byteOffset":1146588,
			"target":34962
		},
		{
			"buffer":0,
			"byteLength":5016,
			"byteOffset":1151604,
			"target":34962
		},
		{
			"buffer":0,
			"byteLength":4548,
			"byteOffset":1156620,
			"target":34963
		},
		{
			"buffer":0,
			"byteLength":7320,
			"byteOffset":1161168,
			"target":34962
		},
		{
			"buffer":0,
			"byteLength":7320,
			"byteOffset":1168488,
			"target":34962
		},
		{
			"buffer":0,
			"byteLength":4880,
			"byteOffset":1175808,
			"target":34962
		},
		{
			"buffer":0,
			"byteLength":4880,
			"byteOffset":1180688,
			"target":34962
		},
		{
			"buffer":0,
			"byteLength":3948,
			"byteOffset":1185568,
			"target":34963
		},
		{
			"buffer":0,
			"byteLength":6024,
			"byteOffset":1189516,
			"target":34962
		},
		{
			"buffer":0,
			"byteLength":6024,
			"byteOffset":1195540,
			"target":34962
		},
		{
			"buffer":0,
			"byteLength":4016,
			"byteOffset":1201564,
			"target":34962
		},
		{
			"buffer":0,
			"byteLength":4016,
			"byteOffset":1205580,
			"target":34962
		},
		{
			"buffer":0,
			"byteLength":2832,
			"byteOffset":1209596,
			"target":34963
		},
		{
			"buffer":0,
			"byteLength":6948,
			"byteOffset":1212428,
			"target":34962
		},
		{
			"buffer":0,
			"byteLength":6948,
			"byteOffset":1219376,
			"target":34962
		},
		{
			"buffer":0,
			"byteLength":4632,
			"byteOffset":1226324,
			"target":34962
		},
		{
			"buffer":0,
			"byteLength":4632,
			"byteOffset":1230956,
			"target":34962
		},
		{
			"buffer":0,
			"byteLength":3264,
			"byteOffset":1235588,
			"target":34963
		},
		{
			"buffer":0,
			"byteLength":6612,
			"byteOffset":1238852,
			"target":34962
		},
		{
			"buffer":0,
			"byteLength":6612,
			"byteOffset":1245464,
			"target":34962
		},
		{
			"buffer":0,
			"byteLength":4408,
			"byteOffset":1252076,
			"target":34962
		},
		{
			"buffer":0,
			"byteLength":4408,
			"byteOffset":1256484,
			"target":34962
		},
		{
			"buffer":0,
			"byteLength":3096,
			"byteOffset":1260892,
			"target":34963
		},
		{
			"buffer":0,
			"byteLength":6492,
			"byteOffset":1263988,
			"target":34962
		},
		{
			"buffer":0,
			"byteLength":6492,
			"byteOffset":1270480,
			"target":34962
		},
		{
			"buffer":0,
			"byteLength":4328,
			"byteOffset":1276972,
			"target":34962
		},
		{
			"buffer":0,
			"byteLength":4328,
			"byteOffset":1281300,
			"target":34962
		},
		{
			"buffer":0,
			"byteLength":3000,
			"byteOffset":1285628,
			"target":34963
		},
		{
			"buffer":0,
			"byteLength":7044,
			"byteOffset":1288628,
			"target":34962
		},
		{
			"buffer":0,
			"byteLength":7044,
			"byteOffset":1295672,
			"target":34962
		},
		{
			"buffer":0,
			"byteLength":4696,
			"byteOffset":1302716,
			"target":34962
		},
		{
			"buffer":0,
			"byteLength":4696,
			"byteOffset":1307412,
			"target":34962
		},
		{
			"buffer":0,
			"byteLength":3072,
			"byteOffset":1312108,
			"target":34963
		},
		{
			"buffer":0,
			"byteLength":3756,
			"byteOffset":1315180,
			"target":34962
		},
		{
			"buffer":0,
			"byteLength":3756,
			"byteOffset":1318936,
			"target":34962
		},
		{
			"buffer":0,
			"byteLength":2504,
			"byteOffset":1322692,
			"target":34962
		},
		{
			"buffer":0,
			"byteLength":2504,
			"byteOffset":1325196,
			"target":34962
		},
		{
			"buffer":0,
			"byteLength":1416,
			"byteOffset":1327700,
			"target":34963
		},
		{
			"buffer":0,
			"byteLength":8844,
			"byteOffset":1329116,
			"target":34962
		},
		{
			"buffer":0,
			"byteLength":8844,
			"byteOffset":1337960,
			"target":34962
		},
		{
			"buffer":0,
			"byteLength":5896,
			"byteOffset":1346804,
			"target":34962
		},
		{
			"buffer":0,
			"byteLength":5896,
			"byteOffset":1352700,
			"target":34962
		},
		{
			"buffer":0,
			"byteLength":3792,
			"byteOffset":1358596,
			"target":34963
		},
		{
			"buffer":0,
			"byteLength":16092,
			"byteOffset":1362388,
			"target":34962
		},
		{
			"buffer":0,
			"byteLength":16092,
			"byteOffset":1378480,
			"target":34962
		},
		{
			"buffer":0,
			"byteLength":10728,
			"byteOffset":1394572,
			"target":34962
		},
		{
			"buffer":0,
			"byteLength":10728,
			"byteOffset":1405300,
			"target":34962
		},
		{
			"buffer":0,
			"byteLength":10728,
			"byteOffset":1416028,
			"target":34962
		},
		{
			"buffer":0,
			"byteLength":14808,
			"byteOffset":1426756,
			"target":34963
		},
		{
			"buffer":0,
			"byteLength":14112,
			"byteOffset":1441564,
			"target":34962
		},
		{
			"buffer":0,
			"byteLength":14112,
			"byteOffset":1455676,
			"target":34962
		},
		{
			"buffer":0,
			"byteLength":9408,
			"byteOffset":1469788,
			"target":34962
		},
		{
			"buffer":0,
			"byteLength":9408,
			"byteOffset":1479196,
			"target":34962
		},
		{
			"buffer":0,
			"byteLength":8856,
			"byteOffset":1488604,
			"target":34963
		},
		{
			"buffer":0,
			"byteLength":9168,
			"byteOffset":1497460,
			"target":34962
		},
		{
			"buffer":0,
			"byteLength":9168,
			"byteOffset":1506628,
			"target":34962
		},
		{
			"buffer":0,
			"byteLength":6112,
			"byteOffset":1515796,
			"target":34962
		},
		{
			"buffer":0,
			"byteLength":6112,
			"byteOffset":1521908,
			"target":34962
		},
		{
			"buffer":0,
			"byteLength":5544,
			"byteOffset":1528020,
			"target":34963
		},
		{
			"buffer":0,
			"byteLength":10752,
			"byteOffset":1533564,
			"target":34962
		},
		{
			"buffer":0,
			"byteLength":10752,
			"byteOffset":1544316,
			"target":34962
		},
		{
			"buffer":0,
			"byteLength":7168,
			"byteOffset":1555068,
			"target":34962
		},
		{
			"buffer":0,
			"byteLength":7168,
			"byteOffset":1562236,
			"target":34962
		},
		{
			"buffer":0,
			"byteLength":6840,
			"byteOffset":1569404,
			"target":34963
		},
		{
			"buffer":0,
			"byteLength":9792,
			"byteOffset":1576244,
			"target":34962
		},
		{
			"buffer":0,
			"byteLength":9792,
			"byteOffset":1586036,
			"target":34962
		},
		{
			"buffer":0,
			"byteLength":6528,
			"byteOffset":1595828,
			"target":34962
		},
		{
			"buffer":0,
			"byteLength":6528,
			"byteOffset":1602356,
			"target":34962
		},
		{
			"buffer":0,
			"byteLength":5832,
			"byteOffset":1608884,
			"target":34963
		},
		{
			"buffer":0,
			"byteLength":7140,
			"byteOffset":1614716,
			"target":34962
		},
		{
			"buffer":0,
			"byteLength":7140,
			"byteOffset":1621856,
			"target":34962
		},
		{
			"buffer":0,
			"byteLength":4760,
			"byteOffset":1628996,
			"target":34962
		},
		{
			"buffer":0,
			"byteLength":4760,
			"byteOffset":1633756,
			"target":34962
		},
		{
			"buffer":0,
			"byteLength":4368,
			"byteOffset":1638516,
			"target":34963
		}
	],
	"samplers":[
		{
			"magFilter":9729,
			"minFilter":9987
		}
	],
	"buffers":[
		{
			"byteLength":1642884,
			"uri":"scene.bin"
		}
	]
}
