{
  "accessors": [
    {
      "bufferView": 2,
      "componentType": 5126,
      "count": 1476,
      "max": [
        41.79972457885742,
        6.884862899780273,
        0.9687901139259338
      ],
      "min": [
        -13.818174362182617,
        1.5047227144241333,
        -0.9687896370887756
      ],
      "type": "VEC3"
    },
    {
      "bufferView": 2,
      "byteOffset": 17712,
      "componentType": 5126,
      "count": 1476,
      "max": [
        1.0,
        1.0,
        1.0
      ],
      "min": [
        -1.0,
        -1.0,
        -1.0
      ],
      "type": "VEC3"
    },
    {
      "bufferView": 1,
      "componentType": 5125,
      "count": 1536,
      "type": "SCALAR"
    },
    {
      "bufferView": 2,
      "byteOffset": 35424,
      "componentType": 5126,
      "count": 1138,
      "max": [
        19.958282470703125,
        5.135030746459961,
        1.3948613405227661
      ],
      "min": [
        -42.25608444213867,
        -7.2793450355529785,
        -1.394860863685608
      ],
      "type": "VEC3"
    },
    {
      "bufferView": 2,
      "byteOffset": 49080,
      "componentType": 5126,
      "count": 1138,
      "max": [
        1.0,
        1.0,
        1.0
      ],
      "min": [
        -1.0,
        -1.0,
        -1.0
      ],
      "type": "VEC3"
    },
    {
      "bufferView": 1,
      "byteOffset": 6144,
      "componentType": 5125,
      "count": 1164,
      "type": "SCALAR"
    },
    {
      "bufferView": 2,
      "byteOffset": 62736,
      "componentType": 5126,
      "count": 156,
      "max": [
        -7.9775214195251465,
        4.779436111450195,
        3.036795139312744
      ],
      "min": [
        -9.055463790893555,
        3.9973278045654297,
        0.48014765977859497
      ],
      "type": "VEC3"
    },
    {
      "bufferView": 2,
      "byteOffset": 64608,
      "componentType": 5126,
      "count": 156,
      "max": [
        1.0,
        1.0,
        1.0
      ],
      "min": [
        -1.0,
        -1.0,
        -1.0
      ],
      "type": "VEC3"
    },
    {
      "bufferView": 1,
      "byteOffset": 10800,
      "componentType": 5125,
      "count": 168,
      "type": "SCALAR"
    },
    {
      "bufferView": 2,
      "byteOffset": 66480,
      "componentType": 5126,
      "count": 236,
      "max": [
        -7.5245561599731445,
        3.202139139175415,
        1.545993447303772
      ],
      "min": [
        -19.445247650146484,
        1.013595700263977,
        -1.2612513303756714
      ],
      "type": "VEC3"
    },
    {
      "bufferView": 2,
      "byteOffset": 69312,
      "componentType": 5126,
      "count": 236,
      "max": [
        1.0,
        0.8660269975662231,
        1.0
      ],
      "min": [
        -1.0,
        -0.8660275936126709,
        -1.0
      ],
      "type": "VEC3"
    },
    {
      "bufferView": 1,
      "byteOffset": 11472,
      "componentType": 5125,
      "count": 240,
      "type": "SCALAR"
    },
    {
      "bufferView": 2,
      "byteOffset": 72144,
      "componentType": 5126,
      "count": 2969,
      "max": [
        43.75421905517578,
        6.481379985809326,
        1.2045179605484009
      ],
      "min": [
        -20.835933685302734,
        -0.503903865814209,
        -1.2045164108276367
      ],
      "type": "VEC3"
    },
    {
      "bufferView": 2,
      "byteOffset": 107772,
      "componentType": 5126,
      "count": 2969,
      "max": [
        1.0,
        1.0,
        1.0
      ],
      "min": [
        -1.0,
        -1.0,
        -1.0
      ],
      "type": "VEC3"
    },
    {
      "bufferView": 1,
      "byteOffset": 12432,
      "componentType": 5125,
      "count": 3099,
      "type": "SCALAR"
    },
    {
      "bufferView": 2,
      "byteOffset": 143400,
      "componentType": 5126,
      "count": 132,
      "max": [
        -17.386133193969727,
        2.0189766883850098,
        0.29176121950149536
      ],
      "min": [
        -18.98341941833496,
        -0.1019630879163742,
        -0.2917608320713043
      ],
      "type": "VEC3"
    },
    {
      "bufferView": 2,
      "byteOffset": 144984,
      "componentType": 5126,
      "count": 132,
      "max": [
        0.9813846945762634,
        0.9194074273109436,
        1.0
      ],
      "min": [
        -0.9194129705429077,
        -0.8790267109870911,
        -1.0
      ],
      "type": "VEC3"
    },
    {
      "bufferView": 1,
      "byteOffset": 24828,
      "componentType": 5125,
      "count": 132,
      "type": "SCALAR"
    },
    {
      "bufferView": 2,
      "byteOffset": 146568,
      "componentType": 5126,
      "count": 84,
      "max": [
        -42.01199722290039,
        1.5375791788101196,
        1.0778601169586182
      ],
      "min": [
        -43.05467224121094,
        -7.399770259857178,
        -1.0778579711914063
      ],
      "type": "VEC3"
    },
    {
      "bufferView": 2,
      "byteOffset": 147576,
      "componentType": 5126,
      "count": 84,
      "max": [
        0.2505415081977844,
        0.9681068062782288,
        1.0
      ],
      "min": [
        -0.9996172785758972,
        -0.9681065082550049,
        -1.0
      ],
      "type": "VEC3"
    },
    {
      "bufferView": 1,
      "byteOffset": 25356,
      "componentType": 5125,
      "count": 84,
      "type": "SCALAR"
    },
    {
      "bufferView": 4,
      "componentType": 5126,
      "count": 12,
      "max": [
        11.071361541748047,
        0.11071361601352692,
        0.11071361601352692,
        0.0,
        0.11071361601352692,
        11.071361541748047,
        4.376191409249941e-09,
        0.0,
        5.781066736432194e-09,
        0.11071362346410751,
        11.071362495422363,
        0.0,
        0.5297935605049133,
        1.4929641485214233,
        2.113213539123535,
        1.0
      ],
      "min": [
        -0.008185881190001965,
        0.0,
        0.0,
        0.0,
        -0.11071361601352692,
        -0.00818588212132454,
        -1.1931858834302034e-09,
        0.0,
        -7.315593109069596e-08,
        -1.8786847633123216e-08,
        -1.804430027618764e-08,
        0.0,
        -0.14879824221134186,
        -0.10225004702806473,
        -9.53383860746726e-08,
        1.0
      ],
      "type": "MAT4"
    },
    {
      "bufferView": 0,
      "componentType": 5123,
      "count": 1476,
      "type": "VEC4"
    },
    {
      "bufferView": 3,
      "componentType": 5126,
      "count": 1476,
      "max": [
        1.0,
        0.0,
        0.0,
        0.0
      ],
      "min": [
        1.0,
        0.0,
        0.0,
        0.0
      ],
      "type": "VEC4"
    },
    {
      "bufferView": 0,
      "byteOffset": 11808,
      "componentType": 5123,
      "count": 1138,
      "type": "VEC4"
    },
    {
      "bufferView": 3,
      "byteOffset": 23616,
      "componentType": 5126,
      "count": 1138,
      "max": [
        1.0,
        0.0,
        0.0,
        0.0
      ],
      "min": [
        1.0,
        0.0,
        0.0,
        0.0
      ],
      "type": "VEC4"
    },
    {
      "bufferView": 0,
      "byteOffset": 20912,
      "componentType": 5123,
      "count": 156,
      "type": "VEC4"
    },
    {
      "bufferView": 3,
      "byteOffset": 41824,
      "componentType": 5126,
      "count": 156,
      "max": [
        1.0,
        0.0,
        0.0,
        0.0
      ],
      "min": [
        1.0,
        0.0,
        0.0,
        0.0
      ],
      "type": "VEC4"
    },
    {
      "bufferView": 0,
      "byteOffset": 22160,
      "componentType": 5123,
      "count": 236,
      "type": "VEC4"
    },
    {
      "bufferView": 3,
      "byteOffset": 44320,
      "componentType": 5126,
      "count": 236,
      "max": [
        1.0,
        0.0,
        0.0,
        0.0
      ],
      "min": [
        1.0,
        0.0,
        0.0,
        0.0
      ],
      "type": "VEC4"
    },
    {
      "bufferView": 0,
      "byteOffset": 24048,
      "componentType": 5123,
      "count": 2969,
      "type": "VEC4"
    },
    {
      "bufferView": 3,
      "byteOffset": 48096,
      "componentType": 5126,
      "count": 2969,
      "max": [
        1.0,
        0.0,
        0.0,
        0.0
      ],
      "min": [
        1.0,
        0.0,
        0.0,
        0.0
      ],
      "type": "VEC4"
    },
    {
      "bufferView": 0,
      "byteOffset": 47800,
      "componentType": 5123,
      "count": 132,
      "type": "VEC4"
    },
    {
      "bufferView": 3,
      "byteOffset": 95600,
      "componentType": 5126,
      "count": 132,
      "max": [
        1.0,
        0.0,
        0.0,
        0.0
      ],
      "min": [
        1.0,
        0.0,
        0.0,
        0.0
      ],
      "type": "VEC4"
    },
    {
      "bufferView": 0,
      "byteOffset": 48856,
      "componentType": 5123,
      "count": 84,
      "type": "VEC4"
    },
    {
      "bufferView": 3,
      "byteOffset": 97712,
      "componentType": 5126,
      "count": 84,
      "max": [
        1.0,
        0.0,
        0.0,
        0.0
      ],
      "min": [
        1.0,
        0.0,
        0.0,
        0.0
      ],
      "type": "VEC4"
    }
  ],
  "asset": {
    "extras": {
      "author": "TastyTony (https://sketchfab.com/TastyTony)",
      "license": "CC-BY-4.0 (http://creativecommons.org/licenses/by/4.0/)",
      "source": "https://sketchfab.com/3d-models/low-poly-baikal-mp-153-5b53c458eb124ac2a8a37255f13a927e",
      "title": "Low-Poly Baikal MP-153"
    },
    "generator": "Sketchfab-15.25.0",
    "version": "2.0"
  },
  "bufferViews": [
    {
      "buffer": 0,
      "byteLength": 49528,
      "byteStride": 8,
      "name": "shortBufferViews",
      "target": 34962
    },
    {
      "buffer": 0,
      "byteLength": 25692,
      "byteOffset": 49528,
      "name": "floatBufferViews",
      "target": 34963
    },
    {
      "buffer": 0,
      "byteLength": 148584,
      "byteOffset": 75220,
      "byteStride": 12,
      "name": "floatBufferViews",
      "target": 34962
    },
    {
      "buffer": 0,
      "byteLength": 99056,
      "byteOffset": 223804,
      "byteStride": 16,
      "name": "floatBufferViews",
      "target": 34962
    },
    {
      "buffer": 0,
      "byteLength": 768,
      "byteOffset": 322860,
      "name": "floatBufferViews"
    }
  ],
  "buffers": [
    {
      "byteLength": 323628,
      "uri": "scene.bin"
    }
  ],
  "extensionsUsed": [
    "KHR_materials_specular"
  ],
  "materials": [
    {
      "doubleSided": true,
      "extensions": {
        "KHR_materials_specular": {
          "specularColorFactor": [
            1.0,
            1.0,
            1.0
          ],
          "specularFactor": 0.0
        }
      },
      "name": "Material.004",
      "pbrMetallicRoughness": {
        "baseColorFactor": [
          0.09405487808000002,
          0.09405487808000002,
          0.09405487808000002,
          1.0
        ],
        "metallicFactor": 0.0
      }
    },
    {
      "doubleSided": true,
      "extensions": {
        "KHR_materials_specular": {
          "specularColorFactor": [
            1.0,
            1.0,
            1.0
          ],
          "specularFactor": 0.0
        }
      },
      "name": "Material.001",
      "pbrMetallicRoughness": {
        "baseColorFactor": [
          0.03064024392,
          0.03064024392,
          0.03064024392,
          1.0
        ],
        "metallicFactor": 0.0
      }
    },
    {
      "doubleSided": true,
      "extensions": {
        "KHR_materials_specular": {
          "specularColorFactor": [
            1.0,
            1.0,
            1.0
          ],
          "specularFactor": 0.0
        }
      },
      "name": "Material.005",
      "pbrMetallicRoughness": {
        "baseColorFactor": [
          0.0989329268,
          0.0989329268,
          0.0989329268,
          1.0
        ],
        "metallicFactor": 0.0
      }
    },
    {
      "doubleSided": true,
      "extensions": {
        "KHR_materials_specular": {
          "specularColorFactor": [
            1.0,
            1.0,
            1.0
          ],
          "specularFactor": 0.0
        }
      },
      "name": "Material.003",
      "pbrMetallicRoughness": {
        "baseColorFactor": [
          0.08429878048,
          0.08429878048,
          0.08429878048,
          1.0
        ],
        "metallicFactor": 0.0
      }
    },
    {
      "doubleSided": true,
      "extensions": {
        "KHR_materials_specular": {
          "specularColorFactor": [
            1.0,
            1.0,
            1.0
          ],
          "specularFactor": 0.0
        }
      },
      "name": "Material",
      "pbrMetallicRoughness": {
        "baseColorFactor": [
          0.05503048784,
          0.05503048784,
          0.05503048784,
          1.0
        ],
        "metallicFactor": 0.0
      }
    },
    {
      "doubleSided": true,
      "extensions": {
        "KHR_materials_specular": {
          "specularColorFactor": [
            1.0,
            1.0,
            1.0
          ],
          "specularFactor": 0.0
        }
      },
      "name": "Material.002",
      "pbrMetallicRoughness": {
        "baseColorFactor": [
          0.2019596836,
          0.1693026679,
          0.1144565828,
          1.0
        ],
        "metallicFactor": 0.0
      }
    },
    {
      "doubleSided": true,
      "extensions": {
        "KHR_materials_specular": {
          "specularColorFactor": [
            1.0,
            1.0,
            1.0
          ],
          "specularFactor": 0.0
        }
      },
      "name": "Material.006",
      "pbrMetallicRoughness": {
        "baseColorFactor": [
          0.0160060976,
          0.0160060976,
          0.0160060976,
          1.0
        ],
        "metallicFactor": 0.0
      }
    }
  ],
  "meshes": [
    {
      "name": "Cylinder.007_Material.004_0",
      "primitives": [
        {
          "attributes": {
            "JOINTS_0": 22,
            "NORMAL": 1,
            "POSITION": 0,
            "WEIGHTS_0": 23
          },
          "indices": 2,
          "material": 0,
          "mode": 4
        }
      ]
    },
    {
      "name": "Cylinder.007_Material.001_0",
      "primitives": [
        {
          "attributes": {
            "JOINTS_0": 24,
            "NORMAL": 4,
            "POSITION": 3,
            "WEIGHTS_0": 25
          },
          "indices": 5,
          "material": 1,
          "mode": 4
        }
      ]
    },
    {
      "name": "Cylinder.007_Material.005_0",
      "primitives": [
        {
          "attributes": {
            "JOINTS_0": 26,
            "NORMAL": 7,
            "POSITION": 6,
            "WEIGHTS_0": 27
          },
          "indices": 8,
          "material": 2,
          "mode": 4
        }
      ]
    },
    {
      "name": "Cylinder.007_Material.003_0",
      "primitives": [
        {
          "attributes": {
            "JOINTS_0": 28,
            "NORMAL": 10,
            "POSITION": 9,
            "WEIGHTS_0": 29
          },
          "indices": 11,
          "material": 3,
          "mode": 4
        }
      ]
    },
    {
      "name": "Cylinder.007_Material_0",
      "primitives": [
        {
          "attributes": {
            "JOINTS_0": 30,
            "NORMAL": 13,
            "POSITION": 12,
            "WEIGHTS_0": 31
          },
          "indices": 14,
          "material": 4,
          "mode": 4
        }
      ]
    },
    {
      "name": "Cylinder.007_Material.002_0",
      "primitives": [
        {
          "attributes": {
            "JOINTS_0": 32,
            "NORMAL": 16,
            "POSITION": 15,
            "WEIGHTS_0": 33
          },
          "indices": 17,
          "material": 5,
          "mode": 4
        }
      ]
    },
    {
      "name": "Cylinder.007_Material.006_0",
      "primitives": [
        {
          "attributes": {
            "JOINTS_0": 34,
            "NORMAL": 19,
            "POSITION": 18,
            "WEIGHTS_0": 35
          },
          "indices": 20,
          "material": 6,
          "mode": 4
        }
      ]
    }
  ],
  "nodes": [
    {
      "children": [
        1
      ],
      "matrix": [
        1.0,
        0.0,
        0.0,
        0.0,
        0.0,
        2.220446049250313e-16,
        -1.0,
        0.0,
        0.0,
        1.0,
        2.220446049250313e-16,
        0.0,
        0.0,
        0.0,
        0.0,
        1.0
      ],
      "name": "Sketchfab_model"
    },
    {
      "children": [
        2
      ],
      "matrix": [
        1.0,
        0.0,
        0.0,
        0.0,
        0.0,
        0.0,
        1.0,
        0.0,
        0.0,
        -1.0,
        0.0,
        0.0,
        0.0,
        0.0,
        0.0,
        1.0
      ],
      "name": "697b4399db7d44b3b6a5100b31dab080.fbx"
    },
    {
      "children": [
        3,
        25,
        28
      ],
      "name": "RootNode"
    },
    {
      "children": [
        4
      ],
      "matrix": [
        7.549789948768648e-06,
        -99.99999999999972,
        -1.4210854715202004e-12,
        0.0,
        -2.8212996916465727e-05,
        -7.105427357601002e-13,
        -99.99999999999602,
        0.0,
        99.99999999999574,
        7.549789948768648e-06,
        -2.8212996916465727e-05,
        0.0,
        10.224998474121094,
        32.1965217590332,
        7.867352906032465e-06,
        1.0
      ],
      "name": "Armature"
    },
    {
      "children": [
        5,
        18,
        19,
        20,
        21,
        22,
        23,
        24,
        17
      ],
      "name": "Object_4"
    },
    {
      "children": [
        6
      ],
      "name": "_rootJoint"
    },
    {
      "children": [
        7,
        9,
        11,
        13,
        15
      ],
      "name": "body_00",
      "rotation": [
        0.7071068286895752,
        3.0549989478983873e-25,
        -3.0550107808119656e-25,
        0.7071067094802856
      ]
    },
    {
      "children": [
        8
      ],
      "name": "bolt_01",
      "rotation": [
        0.0,
        -7.888609052210118e-31,
        6.617343926228353e-24,
        1.0
      ],
      "translation": [
        -0.2078283727169037,
        -1.4772615432739258,
        -2.32136244449066e-07
      ]
    },
    {
      "name": "bolt_end_010",
      "rotation": [
        1.3234889800848443e-23,
        -7.888609052210118e-31,
        6.617343926228353e-24,
        1.0
      ],
      "translation": [
        1.1102230246251565e-16,
        0.6903995275497437,
        0.0
      ]
    },
    {
      "children": [
        10
      ],
      "name": "carrier_02",
      "rotation": [
        -4.317156410138523e-09,
        -1.9936905459871923e-08,
        -0.03699413686990738,
        0.9993155002593994
      ],
      "scale": [
        1.0,
        1.0000001192092896,
        1.0
      ],
      "translation": [
        0.08060140907764435,
        -1.5814168453216553,
        -2.878647364923381e-07
      ]
    },
    {
      "name": "carrier_end_07",
      "rotation": [
        2.6469779601696886e-23,
        3.308722450212111e-24,
        -5.7581849829454685e-18,
        1.0
      ],
      "translation": [
        2.7755575615628914e-17,
        0.7043453454971313,
        0.0
      ]
    },
    {
      "children": [
        12
      ],
      "name": "safety_03",
      "rotation": [
        -1.4987638508046075e-07,
        0.7071068286895752,
        0.7071067690849304,
        2.940685419616784e-07
      ],
      "translation": [
        0.17316654324531555,
        -2.215463638305664,
        -0.09405303001403809
      ]
    },
    {
      "name": "safety_end_06",
      "rotation": [
        1.3234889800848443e-23,
        -5.636493209338272e-24,
        -1.0587911840678754e-22,
        1.0
      ],
      "translation": [
        0.0,
        0.1804104447364807,
        0.0
      ]
    },
    {
      "children": [
        14
      ],
      "name": "shell1_04",
      "rotation": [
        9.158304692391539e-08,
        0.7071067094802856,
        -9.158302560763332e-08,
        0.7071068286895752
      ],
      "scale": [
        0.9999999403953552,
        0.9999997615814209,
        0.9999999403953552
      ],
      "translation": [
        0.35739338397979736,
        -6.096871852874756,
        0.12131118774414063
      ]
    },
    {
      "name": "shell1_end_08",
      "rotation": [
        -2.045931741390773e-23,
        -2.6469779601696886e-23,
        -0.0,
        1.0
      ],
      "translation": [
        0.0,
        0.4602036476135254,
        -6.938893903907228e-18
      ]
    },
    {
      "children": [
        16
      ],
      "name": "shell2_05",
      "rotation": [
        9.158304692391539e-08,
        0.7071067094802856,
        -9.158302560763332e-08,
        0.7071068286895752
      ],
      "scale": [
        0.9999999403953552,
        0.9999997615814209,
        0.9999999403953552
      ],
      "translation": [
        0.696587085723877,
        -6.096871852874756,
        0.12131118774414063
      ]
    },
    {
      "name": "shell2_end_09",
      "rotation": [
        -2.045931741390773e-23,
        -2.6469779601696886e-23,
        -0.0,
        1.0
      ],
      "translation": [
        0.0,
        0.4602036476135254,
        0.0
      ]
    },
    {
      "matrix": [
        2.337408789609774e-06,
        10.230657458306203,
        4.231867194175127,
        0.0,
        4.64350521457601e-07,
        4.231867194175032,
        -10.23065745830623,
        0.0,
        -11.071362346411844,
        2.3374089092755613e-06,
        4.643505290929567e-07,
        0.0,
        -119.7942888749605,
        53.01956088979312,
        7.647617420407718e-06,
        1.0
      ],
      "name": "Object_17"
    },
    {
      "mesh": 0,
      "name": "Object_18",
      "skin": 0
    },
    {
      "mesh": 1,
      "name": "Object_19",
      "skin": 0
    },
    {
      "mesh": 2,
      "name": "Object_20",
      "skin": 0
    },
    {
      "mesh": 3,
      "name": "Object_21",
      "skin": 0
    },
    {
      "mesh": 4,
      "name": "Object_22",
      "skin": 0
    },
    {
      "mesh": 5,
      "name": "Object_23",
      "skin": 0
    },
    {
      "mesh": 6,
      "name": "Object_24",
      "skin": 0
    },
    {
      "children": [
        26
      ],
      "matrix": [
        0.4696982222377133,
        84.82100004156383,
        -52.96392485011905,
        0.0,
        0.00034756002839642086,
        52.96450771032142,
        84.82193656644786,
        0.0,
        99.99888928190175,
        -0.398591179142372,
        0.2484785282830962,
        0.0,
        5.085849761962891,
        1468.3265380859375,
        2250.285888671875,
        1.0
      ],
      "name": "Lamp"
    },
    {
      "children": [
        27
      ],
      "matrix": [
        1.0,
        0.0,
        0.0,
        0.0,
        0.0,
        2.220446049250313e-16,
        1.0,
        0.0,
        0.0,
        -1.0,
        2.220446049250313e-16,
        0.0,
        0.0,
        0.0,
        0.0,
        1.0
      ],
      "name": "Object_26"
    },
    {
      "name": "Object_27"
    },
    {
      "children": [
        29
      ],
      "matrix": [
        1.9470721841536002e-05,
        0.0,
        -100.00001525878717,
        0.0,
        5.024296971964058e-13,
        100.00001525878906,
        9.782667388797899e-20,
        0.0,
        99.99999999999811,
        -5.024296205317393e-13,
        1.9470718870540082e-05,
        0.0,
        3.898845672607422,
        -2.3934597969055176,
        964.6465454101563,
        1.0
      ],
      "name": "Camera"
    },
    {
      "name": "Object_29"
    }
  ],
  "scene": 0,
  "scenes": [
    {
      "name": "Sketchfab_Scene",
      "nodes": [
        0
      ]
    }
  ],
  "skins": [
    {
      "inverseBindMatrices": 21,
      "joints": [
        5,
        6,
        7,
        8,
        9,
        10,
        11,
        12,
        13,
        14,
        15,
        16
      ],
      "skeleton": 5
    }
  ]
}
