{
  "accessors": [
    {
      "bufferView": 3,
      "componentType": 5126,
      "count": 248,
      "max": [
        4.5624284744262695,
        0.6681673526763916,
        0.10142939537763596
      ],
      "min": [
        3.5080924034118652,
        0.4681747853755951,
        -0.09856314212083817
      ],
      "type": "VEC3"
    },
    {
      "bufferView": 3,
      "byteOffset": 2976,
      "componentType": 5126,
      "count": 248,
      "max": [
        1.0,
        0.9238795638084412,
        0.9238801598548889
      ],
      "min": [
        -1.0,
        -0.9238783121109009,
        -0.9238801598548889
      ],
      "type": "VEC3"
    },
    {
      "bufferView": 2,
      "componentType": 5126,
      "count": 248,
      "max": [
        0.99489426612854,
        1.0
      ],
      "min": [
        0.005105748772621155,
        0.02960609458386898
      ],
      "type": "VEC2"
    },
    {
      "bufferView": 1,
      "componentType": 5125,
      "count": 258,
      "type": "SCALAR"
    },
    {
      "bufferView": 3,
      "byteOffset": 5952,
      "componentType": 5126,
      "count": 2006,
      "max": [
        3.556260824203491,
        0.9265242218971252,
        0.33582377433776855
      ],
      "min": [
        -1.0490481853485107,
        -1.1316571235656738,
        -0.33295556902885437
      ],
      "type": "VEC3"
    },
    {
      "bufferView": 3,
      "byteOffset": 30024,
      "componentType": 5126,
      "count": 2006,
      "max": [
        1.0,
        1.0,
        1.0
      ],
      "min": [
        -1.0,
        -1.0,
        -1.0
      ],
      "type": "VEC3"
    },
    {
      "bufferView": 2,
      "byteOffset": 1984,
      "componentType": 5126,
      "count": 2006,
      "max": [
        1.0,
        1.0
      ],
      "min": [
        -8.940696716308594e-08,
        0.0
      ],
      "type": "VEC2"
    },
    {
      "bufferView": 1,
      "byteOffset": 1032,
      "componentType": 5125,
      "count": 2070,
      "type": "SCALAR"
    },
    {
      "bufferView": 3,
      "byteOffset": 54096,
      "componentType": 5126,
      "count": 1348,
      "max": [
        0.5716271996498108,
        0.8428137302398682,
        0.27607789635658264
      ],
      "min": [
        -1.1284236907958984,
        0.09610718488693237,
        -0.2732088267803192
      ],
      "type": "VEC3"
    },
    {
      "bufferView": 3,
      "byteOffset": 70272,
      "componentType": 5126,
      "count": 1348,
      "max": [
        1.0,
        0.9970894455909729,
        1.0
      ],
      "min": [
        -1.0,
        -0.9970894455909729,
        -1.0
      ],
      "type": "VEC3"
    },
    {
      "bufferView": 2,
      "byteOffset": 18032,
      "componentType": 5126,
      "count": 1348,
      "max": [
        1.0,
        1.0
      ],
      "min": [
        -8.940696716308594e-08,
        0.0
      ],
      "type": "VEC2"
    },
    {
      "bufferView": 1,
      "byteOffset": 9312,
      "componentType": 5125,
      "count": 1350,
      "type": "SCALAR"
    },
    {
      "bufferView": 3,
      "byteOffset": 86448,
      "componentType": 5126,
      "count": 348,
      "max": [
        0.5640748143196106,
        1.208481788635254,
        0.07156598567962646
      ],
      "min": [
        -4.26312255859375,
        0.48718953132629395,
        -0.06869694590568542
      ],
      "type": "VEC3"
    },
    {
      "bufferView": 3,
      "byteOffset": 90624,
      "componentType": 5126,
      "count": 348,
      "max": [
        1.0,
        0.8887989521026611,
        1.0
      ],
      "min": [
        -1.0,
        -0.8660259246826172,
        -1.0
      ],
      "type": "VEC3"
    },
    {
      "bufferView": 2,
      "byteOffset": 28816,
      "componentType": 5126,
      "count": 348,
      "max": [
        1.0,
        1.0
      ],
      "min": [
        -8.940696716308594e-08,
        0.01000000536441803
      ],
      "type": "VEC2"
    },
    {
      "bufferView": 1,
      "byteOffset": 14712,
      "componentType": 5125,
      "count": 348,
      "type": "SCALAR"
    },
    {
      "bufferView": 3,
      "byteOffset": 94800,
      "componentType": 5126,
      "count": 859,
      "max": [
        0.39264917373657227,
        0.47058919072151184,
        0.10971265286207199
      ],
      "min": [
        -0.7865616083145142,
        -0.7478399276733398,
        -0.10397423803806305
      ],
      "type": "VEC3"
    },
    {
      "bufferView": 3,
      "byteOffset": 105108,
      "componentType": 5126,
      "count": 859,
      "max": [
        1.0,
        1.0,
        1.0
      ],
      "min": [
        -1.0,
        -1.0,
        -1.0
      ],
      "type": "VEC3"
    },
    {
      "bufferView": 2,
      "byteOffset": 31600,
      "componentType": 5126,
      "count": 859,
      "max": [
        0.875,
        1.0
      ],
      "min": [
        0.125,
        0.0
      ],
      "type": "VEC2"
    },
    {
      "bufferView": 1,
      "byteOffset": 16104,
      "componentType": 5125,
      "count": 861,
      "type": "SCALAR"
    },
    {
      "bufferView": 3,
      "byteOffset": 115416,
      "componentType": 5126,
      "count": 816,
      "max": [
        -0.06377989798784256,
        0.9449989795684814,
        0.13837772607803345
      ],
      "min": [
        -0.761444091796875,
        0.12030452489852905,
        -0.13263918459415436
      ],
      "type": "VEC3"
    },
    {
      "bufferView": 3,
      "byteOffset": 125208,
      "componentType": 5126,
      "count": 816,
      "max": [
        1.0,
        1.0,
        1.0
      ],
      "min": [
        -1.0,
        -1.0,
        -1.0
      ],
      "type": "VEC3"
    },
    {
      "bufferView": 2,
      "byteOffset": 38472,
      "componentType": 5126,
      "count": 816,
      "max": [
        1.0,
        1.0
      ],
      "min": [
        -8.940696716308594e-08,
        0.01000000536441803
      ],
      "type": "VEC2"
    },
    {
      "bufferView": 1,
      "byteOffset": 19548,
      "componentType": 5125,
      "count": 864,
      "type": "SCALAR"
    },
    {
      "bufferView": 3,
      "byteOffset": 135000,
      "componentType": 5126,
      "count": 479,
      "max": [
        3.514596462249756,
        0.8769212961196899,
        0.3101850152015686
      ],
      "min": [
        0.09129362553358078,
        0.2594200074672699,
        -0.3073171377182007
      ],
      "type": "VEC3"
    },
    {
      "bufferView": 3,
      "byteOffset": 140748,
      "componentType": 5126,
      "count": 479,
      "max": [
        1.0,
        0.9238797426223755,
        0.9238796830177307
      ],
      "min": [
        -1.0,
        -0.9238796234130859,
        -0.9238796830177307
      ],
      "type": "VEC3"
    },
    {
      "bufferView": 2,
      "byteOffset": 45000,
      "componentType": 5126,
      "count": 479,
      "max": [
        1.0,
        1.0
      ],
      "min": [
        0.0,
        0.01000000536441803
      ],
      "type": "VEC2"
    },
    {
      "bufferView": 1,
      "byteOffset": 23004,
      "componentType": 5125,
      "count": 480,
      "type": "SCALAR"
    },
    {
      "bufferView": 3,
      "byteOffset": 146496,
      "componentType": 5126,
      "count": 24,
      "max": [
        2.5105133056640625,
        0.831705629825592,
        0.31018441915512085
      ],
      "min": [
        1.358062982559204,
        0.3046356737613678,
        0.110593281686306
      ],
      "type": "VEC3"
    },
    {
      "bufferView": 3,
      "byteOffset": 146784,
      "componentType": 5126,
      "count": 24,
      "max": [
        5.198097028369375e-07,
        0.9238795638084412,
        0.9238795638084412
      ],
      "min": [
        3.252500017952647e-21,
        -0.9238795638084412,
        0.38268327713012695
      ],
      "type": "VEC3"
    },
    {
      "bufferView": 2,
      "byteOffset": 48832,
      "componentType": 5126,
      "count": 24,
      "max": [
        0.6875,
        0.8533459305763245
      ],
      "min": [
        0.3124999701976776,
        0.6850215196609497
      ],
      "type": "VEC2"
    },
    {
      "bufferView": 1,
      "byteOffset": 24924,
      "componentType": 5125,
      "count": 24,
      "type": "SCALAR"
    },
    {
      "bufferView": 5,
      "componentType": 5126,
      "count": 8,
      "max": [
        1.0,
        1.0000001192092896,
        1.3435887069590535e-07,
        0.0,
        0.0,
        1.0,
        4.1559090391274367e-07,
        0.0,
        0.0,
        0.0,
        1.0,
        0.0,
        1.1076456308364868,
        0.7504512071609497,
        0.568170428276062,
        1.0
      ],
      "min": [
        -0.6949902772903442,
        -0.21569932997226715,
        -1.533532270059368e-07,
        0.0,
        -1.0,
        -0.9764599204063416,
        -1.0,
        0.0,
        -1.0,
        -4.1359805891261203e-07,
        -1.0,
        0.0,
        -0.28402864933013916,
        -1.825710415840149,
        -0.001434988691471517,
        1.0
      ],
      "type": "MAT4"
    },
    {
      "bufferView": 0,
      "componentType": 5123,
      "count": 248,
      "type": "VEC4"
    },
    {
      "bufferView": 4,
      "componentType": 5126,
      "count": 248,
      "max": [
        1.0,
        0.0,
        0.0,
        0.0
      ],
      "min": [
        1.0,
        0.0,
        0.0,
        0.0
      ],
      "type": "VEC4"
    },
    {
      "bufferView": 0,
      "byteOffset": 1984,
      "componentType": 5123,
      "count": 2006,
      "type": "VEC4"
    },
    {
      "bufferView": 4,
      "byteOffset": 3968,
      "componentType": 5126,
      "count": 2006,
      "max": [
        1.0,
        0.0,
        0.0,
        0.0
      ],
      "min": [
        1.0,
        0.0,
        0.0,
        0.0
      ],
      "type": "VEC4"
    },
    {
      "bufferView": 0,
      "byteOffset": 18032,
      "componentType": 5123,
      "count": 1348,
      "type": "VEC4"
    },
    {
      "bufferView": 4,
      "byteOffset": 36064,
      "componentType": 5126,
      "count": 1348,
      "max": [
        1.0,
        0.0,
        0.0,
        0.0
      ],
      "min": [
        1.0,
        0.0,
        0.0,
        0.0
      ],
      "type": "VEC4"
    },
    {
      "bufferView": 0,
      "byteOffset": 28816,
      "componentType": 5123,
      "count": 348,
      "type": "VEC4"
    },
    {
      "bufferView": 4,
      "byteOffset": 57632,
      "componentType": 5126,
      "count": 348,
      "max": [
        1.0,
        0.0,
        0.0,
        0.0
      ],
      "min": [
        1.0,
        0.0,
        0.0,
        0.0
      ],
      "type": "VEC4"
    },
    {
      "bufferView": 0,
      "byteOffset": 31600,
      "componentType": 5123,
      "count": 859,
      "type": "VEC4"
    },
    {
      "bufferView": 4,
      "byteOffset": 63200,
      "componentType": 5126,
      "count": 859,
      "max": [
        1.0,
        0.0,
        0.0,
        0.0
      ],
      "min": [
        1.0,
        0.0,
        0.0,
        0.0
      ],
      "type": "VEC4"
    },
    {
      "bufferView": 0,
      "byteOffset": 38472,
      "componentType": 5123,
      "count": 816,
      "type": "VEC4"
    },
    {
      "bufferView": 4,
      "byteOffset": 76944,
      "componentType": 5126,
      "count": 816,
      "max": [
        1.0,
        0.0,
        0.0,
        0.0
      ],
      "min": [
        1.0,
        0.0,
        0.0,
        0.0
      ],
      "type": "VEC4"
    },
    {
      "bufferView": 0,
      "byteOffset": 45000,
      "componentType": 5123,
      "count": 479,
      "type": "VEC4"
    },
    {
      "bufferView": 4,
      "byteOffset": 90000,
      "componentType": 5126,
      "count": 479,
      "max": [
        1.0,
        0.0,
        0.0,
        0.0
      ],
      "min": [
        1.0,
        0.0,
        0.0,
        0.0
      ],
      "type": "VEC4"
    },
    {
      "bufferView": 0,
      "byteOffset": 48832,
      "componentType": 5123,
      "count": 24,
      "type": "VEC4"
    },
    {
      "bufferView": 4,
      "byteOffset": 97664,
      "componentType": 5126,
      "count": 24,
      "max": [
        1.0,
        0.0,
        0.0,
        0.0
      ],
      "min": [
        1.0,
        0.0,
        0.0,
        0.0
      ],
      "type": "VEC4"
    }
  ],
  "asset": {
    "extras": {
      "author": "TastyTony (https://sketchfab.com/TastyTony)",
      "license": "CC-BY-4.0 (http://creativecommons.org/licenses/by/4.0/)",
      "source": "https://sketchfab.com/3d-models/low-poly-silicone-gun-4a5ca4aabf97426ab5fc98dce7a21bbc",
      "title": "Low-Poly Silicone Gun"
    },
    "generator": "Sketchfab-14.20.0",
    "version": "2.0"
  },
  "bufferViews": [
    {
      "buffer": 0,
      "byteLength": 49024,
      "byteStride": 8,
      "name": "shortBufferViews",
      "target": 34962
    },
    {
      "buffer": 0,
      "byteLength": 25020,
      "byteOffset": 49024,
      "name": "floatBufferViews",
      "target": 34963
    },
    {
      "buffer": 0,
      "byteLength": 49024,
      "byteOffset": 74044,
      "byteStride": 8,
      "name": "floatBufferViews",
      "target": 34962
    },
    {
      "buffer": 0,
      "byteLength": 147072,
      "byteOffset": 123068,
      "byteStride": 12,
      "name": "floatBufferViews",
      "target": 34962
    },
    {
      "buffer": 0,
      "byteLength": 98048,
      "byteOffset": 270140,
      "byteStride": 16,
      "name": "floatBufferViews",
      "target": 34962
    },
    {
      "buffer": 0,
      "byteLength": 512,
      "byteOffset": 368188,
      "name": "floatBufferViews"
    }
  ],
  "buffers": [
    {
      "byteLength": 368700,
      "uri": "scene.bin"
    }
  ],
  "materials": [
    {
      "doubleSided": true,
      "name": "Material.006",
      "pbrMetallicRoughness": {
        "baseColorFactor": [
          0.226584,
          0.221385,
          0.206886,
          1.0
        ],
        "metallicFactor": 0.0
      }
    },
    {
      "doubleSided": true,
      "name": "Material.001",
      "pbrMetallicRoughness": {
        "baseColorFactor": [
          0.144104,
          0.0225011,
          0.0225011,
          1.0
        ],
        "metallicFactor": 0.0
      }
    },
    {
      "doubleSided": true,
      "name": "Material.004",
      "pbrMetallicRoughness": {
        "baseColorFactor": [
          0.147314,
          0.147314,
          0.147314,
          1.0
        ],
        "metallicFactor": 0.0
      }
    },
    {
      "doubleSided": true,
      "name": "Material",
      "pbrMetallicRoughness": {
        "baseColorFactor": [
          0.0800117,
          0.0800117,
          0.0800117,
          1.0
        ],
        "metallicFactor": 0.0
      }
    },
    {
      "doubleSided": true,
      "name": "Material.002",
      "pbrMetallicRoughness": {
        "baseColorFactor": [
          0.152325,
          0.03414019999999999,
          0.03414019999999999,
          1.0
        ],
        "metallicFactor": 0.0
      }
    },
    {
      "doubleSided": true,
      "name": "Material.003",
      "pbrMetallicRoughness": {
        "baseColorFactor": [
          0.06680659999999995,
          0.014961000000000006,
          0.014961000000000006,
          1.0
        ],
        "metallicFactor": 0.0
      }
    },
    {
      "doubleSided": true,
      "name": "Material.005",
      "pbrMetallicRoughness": {
        "baseColorFactor": [
          0.273831,
          0.252867,
          0.227113,
          1.0
        ],
        "metallicFactor": 0.0
      }
    },
    {
      "doubleSided": true,
      "name": "Material.007",
      "pbrMetallicRoughness": {
        "baseColorFactor": [
          0.0618594,
          0.100623,
          0.167949,
          1.0
        ],
        "metallicFactor": 0.0
      }
    }
  ],
  "meshes": [
    {
      "name": "Object_0",
      "primitives": [
        {
          "attributes": {
            "JOINTS_0": 33,
            "NORMAL": 1,
            "POSITION": 0,
            "TEXCOORD_0": 2,
            "WEIGHTS_0": 34
          },
          "indices": 3,
          "material": 0,
          "mode": 4
        }
      ]
    },
    {
      "name": "Object_1",
      "primitives": [
        {
          "attributes": {
            "JOINTS_0": 35,
            "NORMAL": 5,
            "POSITION": 4,
            "TEXCOORD_0": 6,
            "WEIGHTS_0": 36
          },
          "indices": 7,
          "material": 1,
          "mode": 4
        }
      ]
    },
    {
      "name": "Object_2",
      "primitives": [
        {
          "attributes": {
            "JOINTS_0": 37,
            "NORMAL": 9,
            "POSITION": 8,
            "TEXCOORD_0": 10,
            "WEIGHTS_0": 38
          },
          "indices": 11,
          "material": 2,
          "mode": 4
        }
      ]
    },
    {
      "name": "Object_3",
      "primitives": [
        {
          "attributes": {
            "JOINTS_0": 39,
            "NORMAL": 13,
            "POSITION": 12,
            "TEXCOORD_0": 14,
            "WEIGHTS_0": 40
          },
          "indices": 15,
          "material": 3,
          "mode": 4
        }
      ]
    },
    {
      "name": "Object_4",
      "primitives": [
        {
          "attributes": {
            "JOINTS_0": 41,
            "NORMAL": 17,
            "POSITION": 16,
            "TEXCOORD_0": 18,
            "WEIGHTS_0": 42
          },
          "indices": 19,
          "material": 4,
          "mode": 4
        }
      ]
    },
    {
      "name": "Object_5",
      "primitives": [
        {
          "attributes": {
            "JOINTS_0": 43,
            "NORMAL": 21,
            "POSITION": 20,
            "TEXCOORD_0": 22,
            "WEIGHTS_0": 44
          },
          "indices": 23,
          "material": 5,
          "mode": 4
        }
      ]
    },
    {
      "name": "Object_6",
      "primitives": [
        {
          "attributes": {
            "JOINTS_0": 45,
            "NORMAL": 25,
            "POSITION": 24,
            "TEXCOORD_0": 26,
            "WEIGHTS_0": 46
          },
          "indices": 27,
          "material": 6,
          "mode": 4
        }
      ]
    },
    {
      "name": "Object_7",
      "primitives": [
        {
          "attributes": {
            "JOINTS_0": 47,
            "NORMAL": 29,
            "POSITION": 28,
            "TEXCOORD_0": 30,
            "WEIGHTS_0": 48
          },
          "indices": 31,
          "material": 7,
          "mode": 4
        }
      ]
    }
  ],
  "nodes": [
    {
      "children": [
        1
      ],
      "matrix": [
        1.0,
        0.0,
        0.0,
        0.0,
        0.0,
        2.220446049250313e-16,
        -1.0,
        0.0,
        0.0,
        1.0,
        2.220446049250313e-16,
        0.0,
        0.0,
        0.0,
        0.0,
        1.0
      ],
      "name": "Sketchfab_model"
    },
    {
      "children": [
        2
      ],
      "name": "root"
    },
    {
      "children": [
        3
      ],
      "matrix": [
        1.0,
        0.0,
        0.0,
        0.0,
        0.0,
        2.220446049250313e-16,
        1.0,
        0.0,
        0.0,
        -1.0,
        2.220446049250313e-16,
        0.0,
        0.0,
        0.0,
        0.0,
        1.0
      ],
      "name": "GLTF_SceneRootNode"
    },
    {
      "children": [
        4
      ],
      "matrix": [
        1.685873969314855e-07,
        -0.9999999999999857,
        0.0,
        0.0,
        0.9999999999999857,
        1.685873969314855e-07,
        0.0,
        0.0,
        0.0,
        0.0,
        1.0,
        0.0,
        1.8257102966308594,
        0.5681703090667725,
        0.0014347434043884277,
        1.0
      ],
      "name": "Armature_10"
    },
    {
      "children": [
        5,
        7,
        8,
        9,
        10,
        11,
        12,
        13,
        14,
        6
      ],
      "name": "GLTF_created_0"
    },
    {
      "children": [
        15,
        21
      ],
      "name": "GLTF_created_0_rootJoint"
    },
    {
      "name": "Cylinder.003_9"
    },
    {
      "mesh": 0,
      "name": "Object_7",
      "skin": 0
    },
    {
      "mesh": 1,
      "name": "Object_8",
      "skin": 0
    },
    {
      "mesh": 2,
      "name": "Object_9",
      "skin": 0
    },
    {
      "mesh": 3,
      "name": "Object_10",
      "skin": 0
    },
    {
      "mesh": 4,
      "name": "Object_11",
      "skin": 0
    },
    {
      "mesh": 5,
      "name": "Object_12",
      "skin": 0
    },
    {
      "mesh": 6,
      "name": "Object_13",
      "skin": 0
    },
    {
      "mesh": 7,
      "name": "Object_14",
      "skin": 0
    },
    {
      "children": [
        16,
        17,
        18,
        19,
        20
      ],
      "name": "frame_7"
    },
    {
      "name": "plunger_2",
      "rotation": [
        9.473093662314743e-16,
        1.1920926112907182e-07,
        2.4074127174699703e-35,
        1.0
      ],
      "scale": [
        1.0,
        0.9999999403953552,
        1.0
      ],
      "translation": [
        -4.344712181136856e-07,
        -1.9142470359802246,
        -2.8463549028856505e-07
      ]
    },
    {
      "name": "handle_3",
      "rotation": [
        8.700526166194322e-08,
        1.6859709717209626e-07,
        -0.3748205900192261,
        0.9270973801612854
      ],
      "translation": [
        0.38386550545692444,
        -2.4250669479370117,
        -3.5332050174474716e-07
      ]
    },
    {
      "name": "plunger_release_4",
      "rotation": [
        -0.779647171497345,
        -0.6262190937995911,
        1.086300045471944e-07,
        1.9658047278880986e-07
      ],
      "scale": [
        0.9999999403953552,
        0.9999998807907104,
        1.0
      ],
      "translation": [
        -0.19875651597976685,
        -2.790645122528076,
        -2.4051408331615676e-07
      ]
    },
    {
      "name": "thing_5",
      "rotation": [
        9.473110602973688e-16,
        1.1920928955078125e-07,
        0.0,
        1.0
      ],
      "translation": [
        0.16396325826644897,
        -2.5761616230010986,
        -4.025641828775406e-07
      ]
    },
    {
      "name": "tube_6",
      "translation": [
        -1.7169185184684466e-07,
        -0.5868902206420898,
        -1.184769686801701e-07
      ]
    },
    {
      "name": "spring_8",
      "rotation": [
        4.2146844236867764e-08,
        0.7071066498756409,
        -4.2146844236867764e-08,
        0.70710688829422
      ],
      "translation": [
        -5.52220683402993e-07,
        -2.212873935699463,
        -3.6112029988544236e-07
      ]
    }
  ],
  "scene": 0,
  "scenes": [
    {
      "name": "Sketchfab_Scene",
      "nodes": [
        0
      ]
    }
  ],
  "skins": [
    {
      "inverseBindMatrices": 32,
      "joints": [
        5,
        15,
        16,
        17,
        18,
        19,
        20,
        21
      ],
      "skeleton": 5
    }
  ]
}
